<svg width="491" height="272" viewBox="0 0 491 272" fill="none" xmlns="http://www.w3.org/2000/svg">
<path d="M58.4256 39.0456C58.4256 78.0912 13.056 78.0912 13.056 78.0912H0V0.122389H13.056C13.056 0.122389 58.4256 0.122375 58.4256 39.0456ZM45.492 39.0456C45.492 13.056 13.056 13.056 13.056 13.056V65.0352C13.056 65.0352 45.492 65.0352 45.492 39.0456Z" fill="white"/>
<path d="M147.533 0.0407844V45.5328C147.533 46.308 147.41 53.7744 143.616 61.3632C138.271 72.0528 128.112 77.9688 115.056 77.9688C102 77.9688 91.8408 72.0528 86.496 61.3632C82.7016 53.7744 82.5792 46.308 82.5792 45.5328V0.0407844H147.533ZM134.599 45.4104V13.056H95.5536V45.492C95.5536 45.492 95.676 50.8368 98.328 55.8552C101.551 61.9752 107.018 64.872 115.056 64.872C123.216 64.872 128.642 61.9752 131.784 55.8552C134.477 50.8776 134.599 45.5328 134.599 45.4104Z" fill="white"/>
<path d="M271.891 0.0408149L240.802 78.0912L209.59 0.0408149H271.891ZM240.802 42.9624L252.715 12.9744H228.725L240.802 42.9624Z" fill="white"/>
<path d="M307.143 13.056V32.5584H339.579V45.492H307.143V65.0352H346.188V78.0912H294.127V0.0408149H346.188V13.0968H307.143V13.056Z" fill="white"/>
<path d="M411.183 78.0912L390.905 45.5328H383.439V78.0912H370.383V32.5992H382.745L370.383 13.0968V0.0408149H396.372C396.372 0.0408149 422.484 0.0408115 422.484 22.8072C422.484 36.6384 412.896 42.1056 405.307 44.2272L426.483 78.132L411.183 78.0912ZM398.045 32.4768C401.513 32.1504 409.428 30.4776 409.428 22.7664C409.428 13.056 396.372 13.056 396.372 13.056H385.887L398.045 32.4768Z" fill="white"/>
<path d="M489.151 13.056H476.095V78.0912H463.162V13.056H450.106V0H489.151V13.056Z" fill="white"/>
<path d="M48.4704 141.209C48.4704 173.563 10.812 173.563 10.812 173.563H0V108.936H10.812C10.812 108.936 48.4704 108.936 48.4704 141.209ZM37.74 141.209C37.74 119.666 10.812 119.666 10.812 119.666V162.751C10.812 162.751 37.74 162.751 37.74 141.209Z" fill="white"/>
<path d="M113.954 173.563H102.286L100.164 168.218H76.0104L73.8888 173.563H62.22L88.0056 108.813L113.954 173.563ZM95.7984 157.366L88.0464 137.945L80.376 157.366H95.7984Z" fill="white"/>
<path d="M188.863 173.563H177.97L145.778 127.5V173.563H134.966V108.813H145.86L178.133 154.877V108.813H188.863V173.563Z" fill="white"/>
<path d="M215.016 154.714H225.828C226.032 160.058 230.438 162.751 235.253 162.751C240.23 162.751 244.678 159.773 244.678 154.714C244.678 149.246 239.578 146.757 235.253 146.594C234.682 146.594 230.275 146.594 225.542 144.473C218.81 141.331 215.016 135.415 215.016 127.745C215.016 116.28 224.808 108.895 235.253 108.895C246.432 108.895 255.245 116.769 255.408 127.745H244.678C244.474 122.4 240.149 119.707 235.253 119.707C230.153 119.707 225.828 122.563 225.828 127.745C225.828 133.089 230.438 135.864 235.253 135.864C235.702 135.864 240.23 135.864 244.882 137.985C251.736 141.127 255.408 147.043 255.408 154.714C255.408 166.26 245.698 173.563 235.253 173.563C224.074 173.277 215.22 165.974 215.016 154.714Z" fill="white"/>
<path d="M353.491 162.751V173.563H318.729V108.813H329.542V162.71L353.491 162.751Z" fill="white"/>
<path d="M391.231 135.864H418.159V146.594H391.231V162.792H423.586V173.604H380.378V108.813H423.586V119.625H391.231V135.864Z" fill="white"/>
<path d="M447.617 154.714H458.429C458.633 160.058 463.039 162.751 467.854 162.751C472.831 162.751 477.278 159.773 477.278 154.714C477.278 149.246 472.178 146.757 467.854 146.594C467.282 146.594 462.876 146.594 458.143 144.473C451.411 141.331 447.617 135.415 447.617 127.745C447.617 116.28 457.409 108.895 467.854 108.895C479.033 108.895 487.846 116.769 488.009 127.745H477.278C477.074 122.4 472.75 119.707 467.854 119.707C462.754 119.707 458.429 122.563 458.429 127.745C458.429 133.089 463.039 135.864 467.854 135.864C468.302 135.864 472.831 135.864 477.482 137.985C484.337 141.127 488.009 147.043 488.009 154.714C488.009 166.26 478.298 173.563 467.854 173.563C456.715 173.277 447.821 165.974 447.617 154.714Z" fill="white"/>
<path d="M34.8432 271.483L17.5032 243.698H11.1384V271.483H0V232.642H10.5672L0 215.995V204.857H22.1952C22.1952 204.857 44.472 204.857 44.472 224.278C44.472 236.069 36.2712 240.761 29.8248 242.556L47.8992 271.483H34.8432ZM23.6232 232.56C26.5608 232.274 33.3336 230.846 33.3336 224.278C33.3336 215.995 22.1952 215.995 22.1952 215.995H13.26L23.6232 232.56Z" fill="white"/>
<path d="M66.6264 229.582C66.6264 215.954 77.7648 204.816 91.392 204.816C105.019 204.816 116.158 215.954 116.158 229.582C116.158 243.209 105.019 254.347 91.392 254.347C77.7648 254.347 66.6264 243.209 66.6264 229.582ZM113.098 271.483H69.1152V260.426H113.098V271.483ZM77.6832 229.582C77.6832 237.211 83.7624 243.29 91.392 243.29C99.0216 243.29 105.101 237.211 105.101 229.582C105.101 221.952 99.0216 215.873 91.392 215.873C83.7624 215.873 77.6832 221.993 77.6832 229.582Z" fill="white"/>
<path d="M199.308 204.857V243.698C199.308 244.351 199.227 250.757 195.963 257.203C191.393 266.342 182.743 271.402 171.605 271.402C160.467 271.402 151.817 266.342 147.247 257.203C144.024 250.716 143.902 244.351 143.902 243.698V204.857H199.308ZM188.251 243.576V215.995H154.918V243.698C154.918 243.698 154.999 248.268 157.284 252.552C160.059 257.774 164.71 260.263 171.564 260.263C178.5 260.263 183.192 257.774 185.844 252.552C188.17 248.268 188.251 243.698 188.251 243.576Z" fill="white"/>
<path d="M270.341 271.483H258.345L256.142 265.975H231.295L229.092 271.483H217.097L243.658 204.857L270.341 271.483ZM251.695 254.837L243.698 234.845L235.783 254.837H251.695Z" fill="white"/>
<path d="M348.636 232.642V271.483H337.498V266.995C332.561 269.851 326.93 271.483 320.851 271.483C302.491 271.483 287.518 256.55 287.518 238.15C287.518 219.749 302.45 204.816 320.851 204.816C330.072 204.816 338.354 208.529 344.352 214.608L336.559 222.401C332.561 218.402 326.93 215.914 320.851 215.914C308.57 215.914 298.656 225.828 298.656 238.109C298.656 250.39 308.57 260.304 320.851 260.304C327.502 260.304 333.418 257.448 337.498 252.797V243.658H318.077V232.601L348.636 232.642Z" fill="white"/>
<path d="M387.478 215.995V232.642H415.181V243.698H387.478V260.345H420.811V271.483H376.339V204.857H420.811V215.995H387.478Z" fill="white"/>
<path d="M448.514 252.062H459.653C459.857 257.57 464.426 260.345 469.363 260.345C474.504 260.345 479.074 257.285 479.074 252.062C479.074 246.432 473.851 243.862 469.363 243.698C468.792 243.698 464.222 243.698 459.367 241.495C452.431 238.272 448.514 232.152 448.514 224.278C448.514 212.486 458.592 204.857 469.363 204.857C480.869 204.857 489.926 212.935 490.13 224.278H479.074C478.87 218.77 474.422 215.995 469.363 215.995C464.141 215.995 459.653 218.933 459.653 224.278C459.653 229.786 464.426 232.642 469.363 232.642C469.853 232.642 474.504 232.641 479.278 234.845C486.336 238.068 490.13 244.188 490.13 252.062C490.13 263.976 480.134 271.483 469.363 271.483C457.817 271.198 448.678 263.69 448.514 252.062Z" fill="white"/>
</svg>
