<svg width="812" height="273" viewBox="0 0 812 273" fill="none" xmlns="http://www.w3.org/2000/svg">
<path d="M379.426 39.7704C379.426 78.816 334.056 78.816 334.056 78.816H321V0.847243H334.056C334.056 0.847243 379.426 0.847229 379.426 39.7704ZM366.492 39.7704C366.492 13.7808 334.056 13.7808 334.056 13.7808V65.76C334.056 65.76 366.492 65.76 366.492 39.7704Z" fill="black"/>
<path d="M468.533 0.765638V46.2576C468.533 47.0328 468.41 54.4992 464.616 62.088C459.271 72.7776 449.112 78.6936 436.056 78.6936C423 78.6936 412.841 72.7776 407.496 62.088C403.702 54.4992 403.579 47.0328 403.579 46.2576V0.765638H468.533ZM455.599 46.1352V13.7808H416.554V46.2168C416.554 46.2168 416.676 51.5616 419.328 56.58C422.551 62.7 428.018 65.5968 436.056 65.5968C444.216 65.5968 449.642 62.7 452.784 56.58C455.477 51.6024 455.599 46.2576 455.599 46.1352Z" fill="black"/>
<path d="M592.891 0.765668L561.802 78.8161L530.59 0.765668H592.891ZM561.802 43.6873L573.715 13.6993H549.725L561.802 43.6873Z" fill="black"/>
<path d="M628.143 13.7809V33.2833H660.579V46.2169H628.143V65.7601H667.188V78.8161H615.127V0.765668H667.188V13.8217H628.143V13.7809Z" fill="black"/>
<path d="M732.183 78.8161L711.905 46.2577H704.439V78.8161H691.383V33.3241H703.745L691.383 13.8217V0.765668H717.372C717.372 0.765668 743.484 0.765665 743.484 23.5321C743.484 37.3633 733.896 42.8305 726.307 44.9521L747.483 78.8569L732.183 78.8161ZM719.045 33.2017C722.513 32.8753 730.428 31.2025 730.428 23.4913C730.428 13.7809 717.372 13.7809 717.372 13.7809H706.887L719.045 33.2017Z" fill="black"/>
<path d="M810.151 13.7809H797.095V78.8161H784.162V13.7809H771.106V0.724854H810.151V13.7809Z" fill="black"/>
<path d="M369.47 141.934C369.47 174.288 331.812 174.288 331.812 174.288H321V109.661H331.812C331.812 109.661 369.47 109.661 369.47 141.934ZM358.74 141.934C358.74 120.391 331.812 120.391 331.812 120.391V163.476C331.812 163.476 358.74 163.476 358.74 141.934Z" fill="black"/>
<path d="M434.954 174.288H423.286L421.164 168.943H397.01L394.889 174.288H383.22L409.006 109.538L434.954 174.288ZM416.798 158.09L409.046 138.67L401.376 158.09H416.798Z" fill="black"/>
<path d="M509.863 174.288H498.97L466.778 128.225V174.288H455.966V109.538H466.86L499.133 155.602V109.538H509.863V174.288Z" fill="black"/>
<path d="M536.016 155.438H546.828C547.032 160.783 551.438 163.476 556.253 163.476C561.23 163.476 565.678 160.498 565.678 155.438C565.678 149.971 560.578 147.482 556.253 147.319C555.682 147.319 551.275 147.319 546.542 145.198C539.81 142.056 536.016 136.14 536.016 128.47C536.016 117.005 545.808 109.62 556.253 109.62C567.432 109.62 576.245 117.494 576.408 128.47H565.678C565.474 123.125 561.149 120.432 556.253 120.432C551.153 120.432 546.828 123.288 546.828 128.47C546.828 133.814 551.438 136.589 556.253 136.589C556.702 136.589 561.23 136.589 565.882 138.71C572.736 141.852 576.408 147.768 576.408 155.438C576.408 166.985 566.698 174.288 556.253 174.288C545.074 174.002 536.22 166.699 536.016 155.438Z" fill="black"/>
<path d="M674.491 163.476V174.288H639.729V109.538H650.542V163.435L674.491 163.476Z" fill="black"/>
<path d="M712.231 136.589H739.159V147.319H712.231V163.517H744.586V174.329H701.378V109.538H744.586V120.35H712.231V136.589Z" fill="black"/>
<path d="M768.617 155.438H779.429C779.633 160.783 784.039 163.476 788.854 163.476C793.831 163.476 798.278 160.498 798.278 155.438C798.278 149.971 793.178 147.482 788.854 147.319C788.282 147.319 783.876 147.319 779.143 145.198C772.411 142.056 768.617 136.14 768.617 128.47C768.617 117.005 778.409 109.62 788.854 109.62C800.033 109.62 808.846 117.494 809.009 128.47H798.278C798.074 123.125 793.75 120.432 788.854 120.432C783.754 120.432 779.429 123.288 779.429 128.47C779.429 133.814 784.039 136.589 788.854 136.589C789.302 136.589 793.831 136.589 798.482 138.71C805.337 141.852 809.009 147.768 809.009 155.438C809.009 166.985 799.298 174.288 788.854 174.288C777.715 174.002 768.821 166.699 768.617 155.438Z" fill="black"/>
<path d="M355.843 272.208L338.503 244.423H332.138V272.208H321V233.366H331.567L321 216.72V205.582H343.195C343.195 205.582 365.472 205.582 365.472 225.002C365.472 236.794 357.271 241.486 350.825 243.281L368.899 272.208H355.843ZM344.623 233.285C347.561 232.999 354.334 231.571 354.334 225.002C354.334 216.72 343.195 216.72 343.195 216.72H334.26L344.623 233.285Z" fill="black"/>
<path d="M387.626 230.306C387.626 216.679 398.765 205.541 412.392 205.541C426.019 205.541 437.158 216.679 437.158 230.306C437.158 243.934 426.019 255.072 412.392 255.072C398.765 255.072 387.626 243.934 387.626 230.306ZM434.098 272.208H390.115V261.151H434.098V272.208ZM398.683 230.306C398.683 237.936 404.762 244.015 412.392 244.015C420.022 244.015 426.101 237.936 426.101 230.306C426.101 222.677 420.022 216.598 412.392 216.598C404.762 216.598 398.683 222.718 398.683 230.306Z" fill="black"/>
<path d="M520.308 205.582V244.423C520.308 245.076 520.227 251.482 516.963 257.928C512.393 267.067 503.743 272.126 492.605 272.126C481.467 272.126 472.817 267.067 468.247 257.928C465.024 251.441 464.902 245.076 464.902 244.423V205.582H520.308ZM509.251 244.301V216.72H475.918V244.423C475.918 244.423 475.999 248.993 478.284 253.277C481.059 258.499 485.71 260.988 492.564 260.988C499.5 260.988 504.192 258.499 506.844 253.277C509.17 248.993 509.251 244.423 509.251 244.301Z" fill="black"/>
<path d="M591.341 272.208H579.345L577.142 266.7H552.295L550.092 272.208H538.097L564.658 205.582L591.341 272.208ZM572.695 255.562L564.698 235.57L556.783 255.562H572.695Z" fill="black"/>
<path d="M669.636 233.366V272.208H658.498V267.72C653.561 270.576 647.93 272.208 641.851 272.208C623.491 272.208 608.518 257.275 608.518 238.874C608.518 220.474 623.45 205.541 641.851 205.541C651.072 205.541 659.354 209.254 665.352 215.333L657.559 223.126C653.561 219.127 647.93 216.638 641.851 216.638C629.57 216.638 619.656 226.553 619.656 238.834C619.656 251.114 629.57 261.029 641.851 261.029C648.502 261.029 654.418 258.173 658.498 253.522V244.382H639.077V233.326L669.636 233.366Z" fill="black"/>
<path d="M708.478 216.72V233.366H736.181V244.423H708.478V261.07H741.811V272.208H697.339V205.582H741.811V216.72H708.478Z" fill="black"/>
<path d="M769.514 252.787H780.653C780.857 258.295 785.426 261.07 790.363 261.07C795.504 261.07 800.074 258.01 800.074 252.787C800.074 247.157 794.851 244.586 790.363 244.423C789.792 244.423 785.222 244.423 780.367 242.22C773.431 238.997 769.514 232.877 769.514 225.002C769.514 213.211 779.592 205.582 790.363 205.582C801.869 205.582 810.926 213.66 811.13 225.002H800.074C799.87 219.494 795.422 216.72 790.363 216.72C785.141 216.72 780.653 219.658 780.653 225.002C780.653 230.51 785.426 233.366 790.363 233.366C790.853 233.366 795.504 233.366 800.278 235.57C807.336 238.793 811.13 244.913 811.13 252.787C811.13 264.701 801.134 272.208 790.363 272.208C778.817 271.922 769.678 264.415 769.514 252.787Z" fill="black"/>
<path d="M273 0H0V273H273V0Z" fill="#76A82C"/>
</svg>
