<svg width="816" height="816" viewBox="0 0 816 816" fill="none" xmlns="http://www.w3.org/2000/svg">
<g clip-path="url(#clip0_632_80)">
<path d="M816 0H0V816H816V0Z" fill="#76A82C"/>
<path d="M197.554 318.77C197.554 357.816 152.184 357.816 152.184 357.816H139.128V279.847H152.184C152.184 279.847 197.554 279.847 197.554 318.77ZM184.62 318.77C184.62 292.781 152.184 292.781 152.184 292.781V344.76C152.184 344.76 184.62 344.76 184.62 318.77Z" fill="white"/>
<path d="M286.661 279.766V325.258C286.661 326.033 286.538 333.499 282.744 341.088C277.399 351.778 267.24 357.694 254.184 357.694C241.128 357.694 230.969 351.778 225.624 341.088C221.829 333.499 221.707 326.033 221.707 325.258V279.766H286.661ZM273.727 325.135V292.781H234.681V325.217C234.681 325.217 234.804 330.562 237.456 335.58C240.679 341.7 246.146 344.597 254.184 344.597C262.344 344.597 267.77 341.7 270.912 335.58C273.605 330.602 273.727 325.258 273.727 325.135Z" fill="white"/>
<path d="M411.019 279.766L379.93 357.816L348.718 279.766H411.019ZM379.93 322.687L391.843 292.699H367.853L379.93 322.687Z" fill="white"/>
<path d="M446.271 292.781V312.283H478.707V325.217H446.271V344.76H485.316V357.816H433.255V279.766H485.316V292.822H446.271V292.781Z" fill="white"/>
<path d="M550.311 357.816L530.033 325.258H522.567V357.816H509.511V312.324H521.873L509.511 292.822V279.766H535.5C535.5 279.766 561.612 279.766 561.612 302.532C561.612 316.363 552.024 321.83 544.436 323.952L565.611 357.857L550.311 357.816ZM537.173 312.202C540.641 311.875 548.556 310.202 548.556 302.491C548.556 292.781 535.5 292.781 535.5 292.781H525.015L537.173 312.202Z" fill="white"/>
<path d="M628.28 292.781H615.224V357.816H602.29V292.781H589.234V279.725H628.28V292.781Z" fill="white"/>
<path d="M187.598 420.934C187.598 453.288 149.94 453.288 149.94 453.288H139.128V388.661H149.94C149.94 388.661 187.598 388.661 187.598 420.934ZM176.868 420.934C176.868 399.391 149.94 399.391 149.94 399.391V442.476C149.94 442.476 176.868 442.476 176.868 420.934Z" fill="white"/>
<path d="M253.083 453.288H241.414L239.292 447.943H215.139L213.017 453.288H201.348L227.134 388.538L253.083 453.288ZM234.927 437.09L227.175 417.67L219.504 437.09H234.927Z" fill="white"/>
<path d="M327.991 453.288H317.097L284.906 407.225V453.288H274.094V388.538H284.988L317.261 434.602V388.538H327.991V453.288Z" fill="white"/>
<path d="M354.144 434.438H364.956C365.16 439.783 369.566 442.476 374.381 442.476C379.358 442.476 383.806 439.498 383.806 434.438C383.806 428.971 378.706 426.482 374.381 426.319C373.81 426.319 369.403 426.319 364.67 424.198C357.938 421.056 354.144 415.14 354.144 407.47C354.144 396.005 363.936 388.62 374.381 388.62C385.56 388.62 394.373 396.494 394.536 407.47H383.806C383.602 402.125 379.277 399.432 374.381 399.432C369.281 399.432 364.956 402.288 364.956 407.47C364.956 412.814 369.566 415.589 374.381 415.589C374.83 415.589 379.358 415.589 384.01 417.71C390.864 420.852 394.536 426.768 394.536 434.438C394.536 445.985 384.826 453.288 374.381 453.288C363.202 453.002 354.348 445.699 354.144 434.438Z" fill="white"/>
<path d="M492.619 442.476V453.288H457.857V388.538H468.669V442.435L492.619 442.476Z" fill="white"/>
<path d="M530.359 399.391V415.589H557.287V426.319H530.359V442.517H562.714V453.329H519.506V388.538H562.714V399.35H530.359V399.391Z" fill="white"/>
<path d="M586.745 434.438H597.557C597.761 439.783 602.167 442.476 606.981 442.476C611.959 442.476 616.406 439.498 616.406 434.438C616.406 428.971 611.306 426.482 606.981 426.319C606.41 426.319 602.004 426.319 597.271 424.198C590.539 421.056 586.745 415.14 586.745 407.47C586.745 396.005 596.537 388.62 606.981 388.62C618.161 388.62 626.973 396.494 627.137 407.47H616.406C616.202 402.125 611.877 399.432 606.981 399.432C601.881 399.432 597.557 402.288 597.557 407.47C597.557 412.814 602.167 415.589 606.981 415.589C607.43 415.589 611.959 415.589 616.61 417.71C623.465 420.852 627.137 426.768 627.137 434.438C627.137 445.985 617.426 453.288 606.981 453.288C595.843 453.002 586.949 445.699 586.745 434.438Z" fill="white"/>
<path d="M684.216 278.664H669.528V550.392H684.216V278.664Z" fill="white"/>
<path d="M173.971 551.208L156.631 523.423H150.266V551.208H139.128V512.366H149.695L139.128 495.72V484.582H161.323C161.323 484.582 183.6 484.582 183.6 504.002C183.6 515.794 175.399 520.486 168.953 522.281L187.027 551.208H173.971ZM162.751 512.285C165.689 511.999 172.462 510.571 172.462 504.002C172.462 495.72 161.323 495.72 161.323 495.72H152.388L162.751 512.285Z" fill="white"/>
<path d="M205.754 509.306C205.754 495.679 216.893 484.541 230.52 484.541C244.147 484.541 255.286 495.679 255.286 509.306C255.286 522.934 244.147 534.072 230.52 534.072C216.893 534.072 205.754 522.934 205.754 509.306ZM252.226 551.208H208.243V540.151H252.226V551.208ZM216.811 509.306C216.811 516.936 222.89 523.015 230.52 523.015C238.15 523.015 244.229 516.936 244.229 509.306C244.229 501.677 238.15 495.598 230.52 495.598C222.89 495.598 216.811 501.718 216.811 509.306Z" fill="white"/>
<path d="M338.436 484.582V523.423C338.436 524.076 338.355 530.482 335.091 536.928C330.521 546.067 321.871 551.126 310.733 551.126C299.595 551.126 290.945 546.067 286.375 536.928C283.152 530.441 283.03 524.076 283.03 523.423V484.582H338.436ZM327.379 523.301V495.72H294.046V523.423C294.046 523.423 294.127 527.993 296.412 532.277C299.187 537.499 303.838 539.988 310.692 539.988C317.628 539.988 322.32 537.499 324.972 532.277C327.298 527.993 327.379 523.423 327.379 523.301Z" fill="white"/>
<path d="M409.469 551.208H397.473L395.27 545.7H370.423L368.22 551.208H356.225L382.785 484.582L409.469 551.208ZM390.823 534.562L382.826 514.57L374.911 534.562H390.823Z" fill="white"/>
<path d="M487.764 512.366V551.208H476.626V546.72C471.689 549.576 466.058 551.208 459.979 551.208C441.619 551.208 426.646 536.275 426.646 517.874C426.646 499.474 441.578 484.541 459.979 484.541C469.2 484.541 477.482 488.254 483.48 494.333L475.687 502.126C471.689 498.127 466.058 495.638 459.979 495.638C447.698 495.638 437.784 505.553 437.784 517.834C437.784 530.114 447.698 540.029 459.979 540.029C466.63 540.029 472.546 537.173 476.626 532.522V523.382H457.205V512.326L487.764 512.366Z" fill="white"/>
<path d="M526.606 495.72V512.366H554.309V523.423H526.606V540.07H559.939V551.208H515.467V484.582H559.939V495.72H526.606Z" fill="white"/>
<path d="M587.643 531.787H598.781C598.985 537.295 603.555 540.07 608.491 540.07C613.632 540.07 618.202 537.01 618.202 531.787C618.202 526.157 612.979 523.586 608.491 523.423C607.92 523.423 603.351 523.423 598.495 521.22C591.559 517.997 587.643 511.877 587.643 504.002C587.643 492.211 597.72 484.582 608.491 484.582C619.997 484.582 629.055 492.66 629.259 504.002H618.202C617.998 498.494 613.551 495.72 608.491 495.72C603.269 495.72 598.781 498.658 598.781 504.002C598.781 509.51 603.555 512.366 608.491 512.366C608.981 512.366 613.632 512.366 618.406 514.57C625.464 517.793 629.259 523.913 629.259 531.787C629.259 543.701 619.263 551.208 608.491 551.208C596.945 550.922 587.806 543.415 587.643 531.787Z" fill="white"/>
</g>
<defs>
<clipPath id="clip0_632_80">
<rect width="816" height="816" fill="white"/>
</clipPath>
</defs>
</svg>
