<?xml version="1.0" standalone="no"?>
<!DOCTYPE svg PUBLIC "-//W3C//DTD SVG 1.1//EN" "http://www.w3.org/Graphics/SVG/1.1/DTD/svg11.dtd">
<svg xmlns="http://www.w3.org/2000/svg">
  <defs>
    <font id="LibreBaskerville" horiz-adv-x="585">
      <font-face font-family="Libre Baskerville" units-per-em="1000" panose-1="2 0 0 0 0 0 0 0 0 0" ascent="970" descent="-270" alphabetic="0" />
      <glyph unicode=" " glyph-name="gid154" horiz-adv-x="287" />
      <glyph unicode="!" glyph-name="gid161" horiz-adv-x="308" d="M89,55q0,28 19,47t46,19q28,0 47-19t19-47q0-27-19-46T154-10q-27,0-46,19T89,55Zm89,152H130q0,80-1.5,136.5t-5,97.5T115,516t-11,68q-7,38-10,59t-4,36t-1,35q0,27 17.5,46.5T154,780t47.5-19.5T219,714q0-18-0.5-33.5t-3.5-38T204,580q-6-33-11-66t-8-74t-5-97t-2-136Z" />
      <glyph unicode="&quot;" glyph-name="gid193" horiz-adv-x="367" d="M122,564H93q-4,29-9.5,61.5T72.5,689t-9,55.5T60,781q0,21 13.5,35T107,830t33.5-14T154,780q0-12-3.5-36.5T142,688t-10.5-63T122,564Zm152,0H245q-4,29-9.5,61.5t-11,63.5t-9,55.5T212,781q0,21 13.5,35T259,830t33.5-14T306,780q0-12-3.5-36.5T294,688t-10.5-63T274,564Z" />
      <glyph unicode="#" glyph-name="gid168" horiz-adv-x="666" d="M598,305l-8-50H451L414,0H355l35,255H239L201,0H141l38,255H39l8,50H189l24,170H70l8,50H222l35,245h60L282,525H433l34,245h60L493,525H627l-8-50H484L461,305H598ZM423,475H273L249,305H400l23,170Z" />
      <glyph unicode="$" glyph-name="gid207" horiz-adv-x="622" d="M288,880h55V778q57-5 104-28t75.5-56T551,624q0-25-14-39.5T499,570q-26,0-37.5,15T445,622.5T431.5,668t-28,41T343,731V455q88-38 139-74t73.5-75.5T578,217q0-63-30-111.5t-82.5-78T343-8V-110H288V-9Q222-6 165,17T73,79T38,168q0,34 15,48t34,14q26,0 38.5-19T144,167.5T154,126q8-31 36.5-57T288,41V341q-38,16-75,34.5t-66.5,44T99.5,481T82,568q0,60 25.5,106t72,73.5T288,779V880ZM474,169q0,39-17.5,66T409,281.5T343,317V43q65,8 98,41.5T474,169ZM176,618q0-41 27-75.5T288,479V730q-34-5-59.5-20t-39-38T176,618Z" />
      <glyph unicode="%" glyph-name="gid224" horiz-adv-x="671" d="M636,770L92,0H35L588,770h48ZM200,780q33,0 59.5-21T302,701.5T318,620q0-43-16-78.5T259.5,485T200,464q-32,0-59,21T98,541.5T82,620q0,45 16,81.5T141,759t59,21Zm0-291q29,0 45,27t16,102q0,79-16,108t-45,29t-45-29T139,618q0-75 16-102t45-27ZM471,306q33,0 59.5-21T573,227.5T589,146q0-43-16-78.5T530.5,11T471-10q-32,0-59,21T369,67.5T353,146q0,45 16,81.5T412,285t59,21Zm0-291q29,0 45,27t16,102q0,79-16,108t-45,29t-45-29T410,144q0-75 16-102t45-27Z" />
      <glyph unicode="&amp;" glyph-name="gid196" horiz-adv-x="878" d="M247-10q-61,0-108.5,23t-75,63T36,167q0,68 54.5,125.5T263,408q-32,47-46.5,88T202,582q0,59 22,103.5T285.5,755T376,780q46,0 81-19t55-52.5T532,631q0-55-37-104.5T375,420L537,209q49,59 80,113t31,80q0,16-14.5,23T587,432v35H817V432q-43,0-65-10.5T709,379L567,171q42-57 87.5-86.5T745,55q26,0 41.5,11.5T818,112l25-7q-10-55-48.5-85T695-10q-33,0-62.5,10.5T570.5,35T496,100Q447,48 381,19T247-10Zm37,63q41,0 89.5,21.5T465,133L290,364q-63-36-98-84.5T157,179q0-55 36-90.5T284,53Zm63,405q47,37 69.5,75.5T439,617q0,47-21,74.5T362,719q-66,0-66-101q0-43 13-84t38-76Z" />
      <glyph unicode="&apos;" glyph-name="gid194" horiz-adv-x="215" d="M122,564H93q-4,29-9.5,61.5T72.5,689t-9,55.5T60,781q0,21 13.5,35T107,830t33.5-14T154,780q0-12-3.5-36.5T142,688t-10.5-63T122,564Z" />
      <glyph unicode="(" glyph-name="gid177" horiz-adv-x="332" d="M281,831l31-28q-49-66-81-122T180.5,573t-26-108.5T147,340q0-110 17.5-199t56-163.5T320-166l-31-28Q170-78 108.5,53.5T47,323q0,135 59.5,264T281,831Z" />
      <glyph unicode=")" glyph-name="gid178" horiz-adv-x="332" d="M20,803l31,28Q167,716 226,587t59-264q0-138-61.5-269.5T43-194L12-166Q74-97 112-22.5T167.5,141T185,340q0,68-7.5,124.5T151.5,573T101,681T20,803Z" />
      <glyph unicode="*" glyph-name="gid167" horiz-adv-x="516" d="M258,349q-19,0-32.5,13.5T212,395q0,17 9,33.5T234,461q5,16 7,35t2,43q-28-15-47-33t-33-34t-26.5-26.5T109,435q-16,0-30,12.5T65,480q0,27 24,40q13,7 29.5,8.5t42.5,8T227,565q-40,23-66,29t-42.5,7.5T89,610q-24,14-24,40q0,20 14,32.5T109,695q15,0 27.5-10.5T163,658t33-34t47-33q0,23-2,42t-7,35q-4,17-13,33t-9,33q0,20 13.5,33T258,780q20,0 33-13t13-33q0-17-8.5-33T282,668q-4-16-6.5-35T273,591q29,15 47.5,33T353,658t26.5,26.5T407,695q16,0 30-12.5T451,650q0-26-24-40q-12-7-29-8.5T355.5,594T289,565q41-22 66.5-28.5t42.5-8t29-8.5q24-13 24-40q0-20-14-32.5T407,435q-15,0-27.5,10.5T353,472t-32.5,34T273,539q0-46 9-78q5-16 13.5-32.5T304,395q0-19-13-32.5T258,349Z" />
      <glyph unicode="+" glyph-name="gid212" horiz-adv-x="550" d="M301,104H249V313H41v50H249V572h52V363H509V313H301V104Z" />
      <glyph unicode="," glyph-name="gid157" horiz-adv-x="273" d="M72-175L49-143q53,38 76.5,73T149,8q-6-4-14-6T119,0Q97,0 82,16.5T67,59q0,28 18.5,45T134,121q35,0 53.5-25.5T206,21q0-37-12.5-68t-42-61.5T72-175Z" />
      <glyph unicode="-" glyph-name="gid173" horiz-adv-x="463" d="M386,248H77v83H386V248Z" />
      <glyph unicode="." glyph-name="gid156" horiz-adv-x="265" d="M67,55q0,28 19,47t46,19q28,0 47-19t19-47q0-27-19-46T132-10Q105-10 86,9T67,55Z" />
      <glyph unicode="/" glyph-name="gid169" horiz-adv-x="460" d="M431,770L87,0H29L382,770h49Z" />
      <glyph unicode="0" glyph-name="gid131" horiz-adv-x="714" d="M357,780q61,0 114.5-30.5t94.5-85T630,537t23-158q0-81-23-152T566,103T471.5,20T357-10T242.5,20T148,103T84,227T61,379q0,85 23,158t64,127.5t94.5,85T357,780Zm0-742q52,0 89,30.5t57,104T523,376q0,136-20,213.5t-57,110T357,732t-89-32.5t-57-110T191,376q0-130 20-203.5t57-104T357,38Z" />
      <glyph unicode="1" glyph-name="gid132" horiz-adv-x="446" d="M276,780V162q0-51 7.5-77.5T313,49t67-11V0H74V38q45,2 67,11.5t29.5,34T178,155V522q0,58-0.5,96T174,668q-5,22-30,27t-75,5v38q33,2 68.5,7.5t71,14.5T276,780Z" />
      <glyph unicode="2" glyph-name="gid133" horiz-adv-x="616" d="M195,103l1-5H395q32,0 53.5,9T486,141t30,72h37L515,0H50V33Q164,135 238,212T353,349t57.5,112.5T427,566q0,77-37,122.5T291,734q-59,0-97-39T156,594q0-54 30-86t80-32q-4-24-25.5-38.5T188,423q-37,0-66,19.5T76,496T59,573q0,60 32.5,107T180,754t127,27t125-28t84.5-76.5T547,564q0-82-47.5-160.5T372,250T195,103Z" />
      <glyph unicode="3" glyph-name="gid134" horiz-adv-x="616" d="M290-10q-69,0-123,23T82,76T51,167q0,36 15,65t41.5,45.5T166,294q28,0 50-12.5T243,250q-37,0-61.5-27.5T157,152q0-51 36.5-83T288,37q68,0 104.5,46T429,214q0,83-33.5,128.5T301,388q-15-7-33.5-12.5T234,370q-20,0-33,9.5T188,404q0,14 12,21t32,7q13,0 29.5-3t31.5-8q53,0 86,48.5T412,597q0,71-29,105.5T294,737q-52,0-83-24t-31-66q0-34 20-55t52-21q-4-16-24-27t-46-11q-29,0-52,14T93.5,585T80,639q0,43 27,74.5t75,49T294,780q72,0 125.5-22t83-62T532,602q0-45-20-83t-54-64.5T382,417v-6q75-19 124-73.5T555,207q0-62-34-111T427,18.5T290-10Z" />
      <glyph unicode="4" glyph-name="gid135" horiz-adv-x="585" d="M199,0V38q44,0 66.5,9.5t30,35T303,155v24H18v50L370,780h31V227q42,2 61.5,8.5T488,261t6,57h35V95H494q0,37-6,55.5t-25.5,25T401,183V162q0-51 6-78t23-36.5T480,38V0H199ZM68,229H303V585h-5L68,229Z" />
      <glyph unicode="5" glyph-name="gid136" horiz-adv-x="568" d="M245,661L198,482l2-3q15,11 44,18.5t58,7.5q59,0 106-30.5T482,392t27-118q0-60-22.5-111.5T424,72.5T331,12T216-10Q160-10 116,8T47,57T22,128q0,27 12.5,42T70,185q25,0 36-15.5T122.5,132T136,87.5t27-38T219,34q78,0 122,72t44,191q0,85-23.5,125T283,462q-41,0-68-22.5T171,367q-6-18-11-23t-13-5q-22,0-22,20q0,2 0,4t1,4L233,780q22-9 50-13.5t67-4.5q93,0 133,19l6-1q-12-57-53-88T333,661H245Z" />
      <glyph unicode="6" glyph-name="gid137" horiz-adv-x="643" d="M586,259q0-56-20.5-105t-57-86T424,10.5T321-10q-76,0-135,44T94,156.5T61,337q0,91 25,171.5T154.5,650t101,95.5T378,780q48,0 87.5-13.5T528,730t23-52q0-24-14.5-38T497,626q-23,0-35.5,11t-21,27t-18,32.5t-26,27.5T349,735q-46,0-82.5-41.5T209,581T188,420l3-2q32,47 70,68.5T349,508q68,0 121.5-32.5t84.5-89T586,259ZM186,332V283q0-123 35.5-185.5T325,35q69,0 102.5,54T461,255q0,100-32,152t-94,52q-46,0-81-30t-68-97Z" />
      <glyph unicode="7" glyph-name="gid138" horiz-adv-x="502" d="M149-10q-18,0-30.5,13.5T106,31q0,10 2.5,22.5T120,88t28,61t51.5,102.5T281,410L417,671H231q-52,0-78.5-5t-40-22.5T85,589L70,550H32l70,280h40q-1-4-2.5-14T138,799q0-17 15-23t61-6H507V750q-33-75-58.5-132.5t-46-105T365,423t-34-84.5T295,247T253,136q-22-59-39.5-91T181,1.5T149-10Z" />
      <glyph unicode="8" glyph-name="gid139" horiz-adv-x="606" d="M300-10q-68,0-122.5,25T91,83.5T59,180q0,62 42,114t126,92q-71,38-106,86T86,580q0,83 64,144q61,56 150,56q78,0 140-42q37-25 56.5-60T516,603q0-50-31.5-93.5T385,433q80-42 120-97.5T545,212q0-63-32.5-113T425,19.5T300-10Zm4,46q68,0 109,39t41,104q0,45-27.5,78.5T329,331l-60,34Q154,301 154,183q0-67 40.5-107T304,36Zm39,418q43,29 66.5,66.5T433,598q0,39-18,70t-49,49t-71,18q-55,0-89-32t-34-84q0-40 29-72.5T296,479l47-25Z" />
      <glyph unicode="9" glyph-name="gid140" horiz-adv-x="643" d="M57,511q0,56 20.5,105t57,86T219,759.5T322,780q77,0 135.5-44.5T549,613t33-180q0-91-25-171.5T488.5,120t-101-95.5T265-10q-48,0-87,13.5t-62.5,37T92,92q0,24 14.5,38T146,144q23,0 35.5-11t21-27t18-32.5t26-27.5T294,35q46,0 82.5,41T434,188.5T455,350l-3,2q-32-46-70-68t-88-22q-67,0-121,32.5t-85,89T57,511Zm400-73v49q0,123-35.5,185.5T318,735q-69,0-102.5-53.5T182,515q0-100 32.5-152T308,311q46,0 81,30t68,97Z" />
      <glyph unicode=":" glyph-name="gid158" horiz-adv-x="285" d="M77,55q0,28 19,47t46,19q28,0 47-19t19-47q0-27-19-46T142-10Q115-10 96,9T77,55Zm0,326q0,28 19,47t46,19q28,0 47-19t19-47q0-27-19-46t-47-19q-27,0-46,19T77,381Z" />
      <glyph unicode=";" glyph-name="gid159" horiz-adv-x="311" d="M89,381q0,28 19,47t46,19q28,0 47-19t19-47q0-27-19-46t-47-19q-27,0-46,19T89,381Zm5-556L71-143q53,38 76.5,73T171,8q-6-4-14-6T141,0q-22,0-37,16.5T89,59q0,28 18.5,45T156,121q35,0 53.5-25.5T228,21q0-37-12.5-68t-42-61.5T94-175Z" />
      <glyph unicode="&lt;" glyph-name="gid218" horiz-adv-x="581" d="M84,336L497,126V72L39,304v64L497,600V544L84,336Z" />
      <glyph unicode="=" glyph-name="gid216" horiz-adv-x="620" d="M537,472V422H83v50H537Zm0-170V252H83v50H537Z" />
      <glyph unicode="&gt;" glyph-name="gid217" horiz-adv-x="581" d="M84,126L497,336L84,544v56L542,368V304L84,72v54Z" />
      <glyph unicode="?" glyph-name="gid163" horiz-adv-x="399" d="M180,237H125V466h29q130,0 130,99q0,48-25.5,82T197,681q-18,0-38-5.5T122,670q-23,0-38,15T69,724q0,56 62,56q41,0 79-20.5T277.5,704T324,624t17-94q0-76-42-118T180,370V237ZM84,55q0,28 19,47t46,19q28,0 47-19t19-47q0-27-19-46T149-10q-27,0-46,19T84,55Z" />
      <glyph unicode="@" glyph-name="gid195" horiz-adv-x="1029" d="M537-134q-106,0-195,32T188-12T87.5,125.5T52,300q0,101 39,188.5t109.5,153T364,743.5T565,780q120,0 210-45T915.5,609.5T966,422q0-69-20.5-131t-56-110t-81-76T712,77q-49,0-74.5,29T607,192h-4q-31-52-77-83.5T434,77q-43,0-77,22t-53.5,61T284,248q0,55 22.5,107T367,449t85.5,66.5T550,540q47,0 75-24t42-74l4-1l22,89h96L722,293q-11-40-18.5-75.5T696,167q0-19 12-29.5T740,127q33,0 65,25.5T863.5,220t42,94T921,420q0,68-26,125.5t-73,100t-111,66T571,735q-90,0-168-33T266.5,609.5t-91-139T143,299q0-114 51-201T337-37.5T550-86Q719-86 864,14l21-31q-88-61-171-89T537-134ZM449,122q32,0 65,24t60,64t43.5,88T634,394q0,49-20,76.5T558,498q-33,0-64.5-23T437,413t-40-87t-15-99q0-105 67-105Z" />
      <glyph unicode="A" glyph-name="gid1" horiz-adv-x="772" d="M-6,0V38q46,5 69,21.5T103,119L363,770h43L633,206q23-56 40-89.5t33-50t34.5-22T785,39V0H459V39q53,0 73,10t20,33q0,20-4.5,37.5T529,171L488,279H221q-34-82-48-127T159,87q0-28 18.5-38.5T237,38V0H-6ZM241,329H469L360,624h-4L241,329Z" />
      <glyph unicode="B" glyph-name="gid10" horiz-adv-x="767" d="M38,0V38q52,2 77.5,10.5t34,32.5t8.5,71V618q0,47-7,70.5T122.5,721T58,732v38H357q135,0 210-48.5T642,585q0-64-42.5-106.5T469,410v-4q65-5 121.5-28.5t91.5-66T717,206q0-56-29-102.5T612,32Q578,14 529.5,7T398,0H38ZM400,43q182,0 182,153q0,58-24.5,99.5T490,357q-31,15-74.5,19T308,380H263V157q0-61 32-87.5T400,43ZM263,430h56q65,0 95,6.5T460,453q26,16 41,48t15,80q0,72-38.5,107T357,723H280q-17,0-17-17V430Z" />
      <glyph unicode="C" glyph-name="gid11" horiz-adv-x="802" d="M671,708l18,62h28l9-230H689q-22,87-85,137.5T452,728q-81,0-138.5-42T225,565.5T194,378q0-160 67.5-247T455,44q95,0 158,52t90,153h41V0H709L686,79Q581-10 432-10Q319-10 235.5,37T106,169.5T60,372q0,91 27.5,165.5t78.5,129t121.5,84T443,780q60,0 113.5-17T671,708Z" />
      <glyph unicode="D" glyph-name="gid13" horiz-adv-x="884" d="M38,0V38q51,2 77,10.5T149.5,81t8.5,71V618q0,47-7,70.5T122.5,721T58,732v38H409q90,0 166-29.5t132-83T794,531t31-159q0-82-29-150T714,104T588.5,27T429,0H38ZM412,49q136,0 209.5,82T695,370q0,111-35,189.5t-99.5,120T407,721H280q-17,0-17-17V163Q263,49 412,49Z" />
      <glyph unicode="E" glyph-name="gid16" horiz-adv-x="726" d="M260,710V423q54,0 90.5,6.5t58,20.5t31,36t9.5,52h35V265H449q0,30-8.5,52T411,353.5t-58,22T260,383V157q0-43 15.5-68T327,53.5T426,43q71,0 113.5,14T606,104.5T643,197h38L666,0H45V38q47,2 70.5,10.5T147,81t8,71V618q0,47-7,70.5T119.5,721T55,732v38H633l9-176H607q-8,53-29.5,82T514,716T404,727H277q-8,0-12.5-4.5T260,710Z" />
      <glyph unicode="F" glyph-name="gid21" horiz-adv-x="670" d="M45,0V38q47,2 70.5,10.5T147,81t8,71V618q0,47-7,70.5T119.5,721T55,732v38H633l11-191H609q-8,57-29,88t-62.5,43T404,722H277q-17,0-17-17V403q65,0 105,10t60,37.5T449,528h35V235H449q-5,38-16.5,63T400,337t-55,20t-85,6V159q0-51 9.5-76.5t39.5-34T399,38V0H45Z" />
      <glyph unicode="G" glyph-name="gid22" horiz-adv-x="870" d="M428-10Q315-10 232.5,37T105,169.5T60,372q0,121 48.5,213t135,143.5T443,780q60,0 113.5-17T671,708l21,62h35L714,540H666q0,65-31,106.5T555,708T452,728q-81,0-138.5-42T225,565.5T194,378q0-160 67.5-247T455,44q65,0 110.5,20T635,116t24,69q0,59-23.5,79T559,284v38H843V284q-49,0-65.5-18.5T761,195V83q-25,0-45.5-3.5T670.5,66T608,34Q574,15 527.5,2.5T428-10Z" />
      <glyph unicode="H" glyph-name="gid23" horiz-adv-x="925" d="M45,0V38q47,2 70.5,10.5T147,81t8,71V618q0,47-7,70.5T119.5,721T55,732v38H359V732q-43-1-64-10.5T267,687t-7-76V419H665V618q0,47-7,70.5T629.5,721T565,732v38H869V732q-43-1-64-10.5T777,687t-7-76V159q0-51 7.5-76.5t31-34T879,38V0H555V38q47,2 70.5,10.5T657,81t8,71V369H260V159q0-51 7.5-76.5t31-34T369,38V0H45Z" />
      <glyph unicode="I" glyph-name="gid24" horiz-adv-x="415" d="M45,0V38q47,2 70.5,12T147,90t8,92V588q0,57-7,87t-28.5,42.5T55,732v38H359V732q-43-1-64-13.5T267,674t-7-93V189q0-66 7.5-97.5t31-41.5T369,38V0H45Z" />
      <glyph unicode="J" glyph-name="gid29" horiz-adv-x="394" d="M41-260q-67,0-109,27t-42,71q0,25 13.5,38.5T-58-110q21,0 31.5-11T-2-157q17-28 27.5-41.5T58-212q42,0 64.5,44T145-43V618q0,47-7,70.5T109.5,721T45,732v38H349V732q-43-1-64-10.5T257,687t-7-76V-2q0-126-53.5-192T41-260Z" />
      <glyph unicode="K" glyph-name="gid31" horiz-adv-x="779" d="M45,0V38q47,0 70.5,9T147,80.5t8,71.5V618q0,51-8.5,75.5t-30,31.5T55,732v38H359V732q-40,0-61.5-8T268,690t-8-79V364L510,665q20,25 20,39t-14,21t-43,7v38H714V733q-26,0-45.5-5t-39-21T582,658L394,441L686,90q25-29 47-40.5T792,38V0H485V38q39,0 56,6.5T558,65q0,8-8,23t-26,37L329,365l-69-80V159q0-51 8-77t31.5-35T369,38V0H45Z" />
      <glyph unicode="L" glyph-name="gid32" horiz-adv-x="727" d="M45,0V38q47,2 70.5,10.5T147,81t8,71V618q0,47-7,70.5T119.5,721T55,732v38H359V732q-43-1-64-10.5T267,687t-7-76V180q0-56 15.5-85T330,55.5T438,45q77,0 122,12t69.5,45T668,197h38L691,0H45Z" />
      <glyph unicode="M" glyph-name="gid33" horiz-adv-x="1090" d="M506-10L219,646h-4V189q0-66 7.5-97.5t31-41.5T324,38V0H45V38q47,2 70.5,12T147,90t8,92V588q0,57-7,87t-28.5,42.5T55,732v38H294L546,179h4L810,770h224V732q-43-1-64-13.5T942,674t-7-93V189q0-66 7.5-97.5t31-41.5T1044,38V0H720V38q47,2 70.5,12T822,90t8,92V646H820L528-10H506Z" />
      <glyph unicode="N" glyph-name="gid34" horiz-adv-x="902" d="M694-10L219,616h-4V189q0-66 7-97.5T250.5,50T314,38V0H45V38q47,2 70.5,12T147,90t8,92V588q0,57-7,87t-28.5,42.5T55,732v38H253L690,187h4V581q0,66-7,97.5t-28,42T595,732v38H864V732q-47-1-70.5-11.5T762,680t-8-92V-10H694Z" />
      <glyph unicode="O" glyph-name="gid36" horiz-adv-x="946" d="M473,780q88,0 163.5-30.5t132-85T857,537t32-158q0-81-32-152T768,103T635.5,20T473-10T310.5,20T178,103T89,227T57,379q0,85 32,158t88.5,127.5t132,85T473,780Zm0-735q88,0 152,40.5t99,115T759,376q0,107-35,185.5t-99,121T473,725T321,682.5t-99-121T187,376q0-101 35-175.5t99-115T473,45Z" />
      <glyph unicode="P" glyph-name="gid44" horiz-adv-x="687" d="M658,577q0-70-30.5-121t-98-78.5T350,350H260V157q0-49 9.5-75t39-35T398,38V0H45V38q47,2 70.5,10.5T147,81t8,71V618q0,47-7,70.5T119.5,721T55,732v38H369q137,0 213-51t76-142ZM260,706V400h71q99,0 148,38.5T528,565q0,84-38.5,121T369,723H277q-17,0-17-17Z" />
      <glyph unicode="Q" glyph-name="gid46" horiz-adv-x="948" d="M474,780q88,0 163.5-30.5t132-85.5T858,536t32-158q0-94-38.5-171.5T749,73q-27-24-60-42.5t-69-34T546-33q-27-10-52.5-22.5T447-84v-4q6,1 16.5,1.5T482-86q45,0 84-11.5t76-26t74-26T794-161q47,0 71,20t39,69h25q2-9 3-20t1-22q0-42-23-75t-62.5-52T758-260q-44,0-83.5,14t-75,34.5T531-171t-64,34t-61,14q-26,0-42.5-10T335-155.5T311-178t-29-10q-13,0-21,7t-8,18q0,9 4,16t18,17t44,27L449-29Q365-26 293.5,6T169,93.5t-82,128T58,376q0,86 32,159.5T178.5,664t132,85.5T474,780Zm0-760q88,0 152,43.5T725,187t35,189q0,107-35,185.5t-99,121T474,725T322,682.5t-99-121T188,376q0-109 35-189T322,63.5T474,20Z" />
      <glyph unicode="R" glyph-name="gid47" horiz-adv-x="788" d="M658,577q0-79-48-132.5T457,373L678,107q27-33 60-47.5T815,38V0H622L377,314q-17,23-32,34t-34.5,14T260,365V157q0-49 9.5-75t39-35T398,38V0H45V38q47,2 70.5,10.5T147,81t8,71V618q0,47-7,70.5T119.5,721T55,732v38H369q137,0 213-51t76-142ZM260,706V415h71q99,0 148,37t49,120q0,80-38.5,115.5T369,723H277q-17,0-17-17Z" />
      <glyph unicode="S" glyph-name="gid48" horiz-adv-x="645" d="M73,11L58,235H95q14-91 75.5-142.5T322,41q74,0 117,35.5T482,171q0,34-15.5,60.5T413,283T307,337q-83,37-130.5,70t-67,71.5T90,568q0,62 28.5,110t79,75T314,780q84,0 159-59l26,45h23l11-199H496q-24,82-69.5,122T317,729q-61,0-97-30.5T184,618q0-31 14.5-56t48-47.5T337,466q99-44 154.5-81T569,309t22-92q0-67-34.5-118T461,19T319-10Q262-10 216.5,6.5T124,60L96,11H73Z" />
      <glyph unicode="T" glyph-name="gid49" horiz-adv-x="803" d="M776,770l10-191H745q-4,58-22.5,90T668,714t-94,13q-49,0-73.5-3t-32-9.5T461,696V161q0-43 8.5-69.5t36.5-39T590,38V0H212V38q57,2 84.5,14.5t36.5,39t9,69.5V696q0,12-7,18.5T307.5,724T244,727q-39,0-72-3.5T114,706T74.5,662T58,579H21V770H776Z" />
      <glyph unicode="U" glyph-name="gid50" horiz-adv-x="861" d="M722,512V310q0-105-28.5-176.5T602,26T434-10q-98,0-163.5,27t-98,89T140,273V537q0,50-1,83.5T133,676t-17,34q-12,13-32.5,17.5T29,732v38H370V732q-34,0-55-4t-33-20q-13-18-17.5-57.5T260,537V265q0-102 45-157.5T462,52q100,0 150,56t50,163V512q0,89-6.5,135T629,712q-13,13-34.5,16.5T542,732v38H832V732q-31,0-52-5t-33-22q-15-21-20-65.5T722,512Z" />
      <glyph unicode="V" glyph-name="gid55" horiz-adv-x="784" d="M246,603L424,153L600,587q10,25 16,42t8.5,30t2.5,24q0,27-17,38t-61,11v38H792V732q-46-5-69-22t-40-59L412-10H377L119,613q-17,41-34,66T45,716.5T-13,731v39H313V731q-55,0-73-10.5T222,689q0-14 5.5-32.5T246,603Z" />
      <glyph unicode="W" glyph-name="gid56" horiz-adv-x="1176" d="M700,600L834,151L990,585q14,39 20,62t6,40q0,26-17,35.5T941,732v38h243V732q-46,0-69.5-19T1075,651L824-10H789L597,559L384-10H349L141,564q-23,65-42.5,101t-44,51T-11,731v39H315V731q-51,0-71.5-9T223,687q0-13 4.5-30T239,617L391,154L563,633q-18,39-33.5,60t-31,29.5T464,731v39H770V731q-58,0-74.5-8.5T679,691q0-15 5.5-36.5T700,600Z" />
      <glyph unicode="X" glyph-name="gid57" horiz-adv-x="818" d="M465,421L695,109q26-34 58-52.5T822,38V0H481V38q44,0 61,8.5T559,70q0,10-3.5,20.5t-14,29T508,172L394,342L308,234q-41-52-65-85T209,96.5T199,64q0-15 17.5-20.5T280,38V0H2V38q32,0 57,9t50,31t56,61L361,389L158,666q-25,35-56,50.5T28,732v38H360V732q-33,0-49-9.5T295,693q0-25 28-66L432,465l98,124q28,35 39,57t11,42q0,25-16.5,34.5T505,732v38H780V732q-32,0-53.5-7T683,695.5T624,626L465,421Z" />
      <glyph unicode="Y" glyph-name="gid58" horiz-adv-x="733" d="M204,0V38q48,0 71.5,10.5t31,41.5t7.5,92V304L114,646q-20,35-37,53.5T41.5,725T-5,732v38H310V732q-49,0-70-7.5T219,698q0-10 5.5-25T242,638L397,373h4L514,563q32,53 45.5,84.5T573,698t-14.5,26.5T508,732v38H737V732q-21,0-38-6.5t-34.5-24t-39-49.5T573,568L419,308V189q0-65 7.5-97.5t30.5-43T528,38V0H204Z" />
      <glyph unicode="Z" glyph-name="gid60" horiz-adv-x="770" d="M722,235L710,0H16V4L542,728H268q-70,0-105.5-32T113,586H76L91,770H700v-4L179,46H489q51,0 84,8t53,28t32,57.5T679,235h43Z" />
      <glyph unicode="[" glyph-name="gid181" horiz-adv-x="371" d="M348,773H197V-103H348v-47H107V820H348V773Z" />
      <glyph unicode="\" glyph-name="gid170" horiz-adv-x="460" d="M373,0L29,770H78L431,0H373Z" />
      <glyph unicode="]" glyph-name="gid182" horiz-adv-x="371" d="M23-150v47H174V773H23v47H264V-150H23Z" />
      <glyph unicode="^" glyph-name="gid222" horiz-adv-x="480" d="M195,409h90L404,230H359L240,348L121,230H76L195,409Z" />
      <glyph unicode="_" glyph-name="gid176" horiz-adv-x="722" d="M646-143H76v68H646v-68Z" />
      <glyph unicode="`" glyph-name="gid251" horiz-adv-x="275" d="M255,651H208L71,716q-24,11-37.5,23.5T20,768q0,17 10.5,26T58,803q31,0 67-33L255,651Z" />
      <glyph unicode="a" glyph-name="gid61" horiz-adv-x="554" d="M444-10q-43,0-65,28T357,97h-5q-27-49-73-77.5T177-9Q136-9 106,6T59.5,47.5T43,110q0,47 35,86.5T205,276l144,63v41q0,63-25.5,92.5T243,502q-32,0-46.5-13T169,437q-11-28-21.5-38T117,389q-24,0-37,13T67,439q0,48 51,74.5T263,540q101,0 142.5-35T447,384V160q0-62 12-88t38-26q10,0 23.5,4.5T541,68l14-24Q543,21 511,5.5T444-10ZM222,51q36,0 65,22.5T332.5,134T349,217v79q-76-29-121-57t-64.5-55.5T144,127q0-34 22-55t56-21Z" />
      <glyph unicode="b" glyph-name="gid69" horiz-adv-x="654" d="M348-11q-56,0-106,21T160,67L113,0H91V604q0,101-13,129q-4,10-10.5,15T46,757t-47,8v25l188,40V459h4q32,42 71,61.5T351,540q72,0 130-36.5T572.5,405T606,265T572,124.5t-92.5-99T348-11ZM337,37q47,0 82,28t54.5,79T493,262q0,68-20.5,120T416,463.5T333,493q-40,0-72.5-19.5T211,419q-22-44-22-121V209q0-50 19-89t52.5-61T337,37Z" />
      <glyph unicode="c" glyph-name="gid70" horiz-adv-x="536" d="M476,112l30-29q-36-43-93-68T290-10q-71,0-125.5,34t-85,95T49,261q0,85 35,147.5t97.5,97T327,540q52,0 91.5-11t62-31T503,452q0-19-13-30.5T454,410q-18,0-30,8t-31,33q-13,16-25.5,25T341,489t-34,4q-70,0-107-55T163,276q0-114 41-174T322,42q41,0 79,16.5T476,112Z" />
      <glyph unicode="d" glyph-name="gid72" horiz-adv-x="675" d="M308-10q-75,0-134,35.5t-92.5,98T48,266q0,79 33,141t91.5,97.5T306,540q47,0 87-16t69-51h4V575q0,56-1.5,95T460,722q-5,22-28,31t-75,9v30l205,38V253q0-69 1.5-113.5T569,76q6-24 20.5-32.5T650,35V1L484-10V84h-4q-36-50-76.5-72T308-10ZM464,239v66q0,53-5.5,79.5T437,431q-22,30-58,45.5T308,492q-71,0-109-60T161,271q0-106 37.5-169.5T308,38q35,0 73,16.5T438,101q14,22 20,53t6,85Z" />
      <glyph unicode="e" glyph-name="gid74" horiz-adv-x="573" d="M491,121l31-28Q437-10 311-10q-78,0-137,34T82,118.5T49,259q0,82 35,145.5T180.5,504T323,540q96,0 149.5-52.5T526,337q0-13-5.5-16.5T495,317H166q-2-8-3-19.5T162,272q0-69 22-121t62-80.5T339,42q41,0 78,19t74,60ZM173,363H357q41,0 50.5,5t9.5,23q0,46-30,73.5T307,492q-53,0-87-32.5T173,363Z" />
      <glyph unicode="f" glyph-name="gid79" horiz-adv-x="412" d="M49,0V35q38,2 56.5,10.5t24,33T135,153V467H22v47H135v72q0,77 27,131.5T241.5,801T368,830q62,0 101-19t39-51q0-18-12.5-31.5T464,715q-13,0-26,8t-35,25t-35,25.5T333,782q-29,0-52.5-15T244,720q-8-20-11.5-50T229,592V514H390V467H229V161q0-49 8.5-76t31-38T333,35V0H49Z" />
      <glyph unicode="g" glyph-name="gid80" horiz-adv-x="599" d="M288-260q-117,0-186.5,39T32-118q0,41 26.5,69.5T123-20q15,0 30.5-5T182-41q-27-6-44-29.5T121-123q0-45 44.5-69T290-216q169,0 169,104q0,41-24.5,67.5T368-13L189,9q-54,7-84,30.5T75,102q0,38 28,65t74,34v4q-44,18-73.5,62.5T74,366q0,50 25.5,89T170,517t102,23q43,0 82-13.5T421,487q32,29 58.5,41T531,540q34,0 56-16.5T609,481q0-18-11-28.5T568,442q-18,0-28,8t-20,15.5T493,473q-23,0-48-17q13-19 18.5-41.5T469,364q0-58-20-94t-52-55.5T328,186t-71-13q-31-3-55.5-6t-39-10T148,132t16.5-25T216,96L385,77q72-8 115-53T543-89q0-81-66-126T288-260ZM274,215q42,0 65.5,38.5T363,360T339.5,465.5T273,503t-68.5-38.5T179,361q0-66 26-106t69-40Z" />
      <glyph unicode="h" glyph-name="gid81" horiz-adv-x="688" d="M208,287V159q0-55 4.5-80.5t22-33T290,35V0H24V35q39,3 57,10.5t23.5,32T110,152V571q0,113-7,147q-5,25-20.5,32.5T22,758v34l184,38V449h4q32,41 87,66t112,25q44,0 81.5-15.5T550,480q18-23 25.5-60T583,319V159q0-54 4.5-79.5t22-33.5T665,35V0H400V35q38,2 56,10t23,32.5t5,74.5V278q0,112-25.5,159.5T372,485q-47,0-87-24.5T225,396q-12-24-14.5-49T208,287Z" />
      <glyph unicode="i" glyph-name="gid82" horiz-adv-x="341" d="M228,540V159q0-51 7-77.5T262,46t59-11V0H34V35q41,2 61.5,11.5t27.5,34t7,71.5V280q0,58-1.5,96T123,427q-4,23-22.5,31.5T32,467v35l196,38ZM113,743q0,26 18,44t44,18t44-18t18-44t-18-44t-44-18t-44,18t-18,44Z" />
      <glyph unicode="j" glyph-name="gid89" horiz-adv-x="304" d="M8-260q-64,0-104.5,26T-137-167q0,23 13.5,35T-86-120q18,0 27.5-8.5T-34-167q14-30 26-40t37-10q48,0 67,33T115-68V280q0,58-1.5,96T108,427q-4,23-22.5,31.5T17,467v35l196,38V-2q0-124-53-191T8-260ZM100,743q0,26 18,44t44,18t44-18t18-44t-18-44t-44-18t-44,18t-18,44Z" />
      <glyph unicode="k" glyph-name="gid92" horiz-adv-x="616" d="M17,0V35q40,2 60.5,11t28,34t7.5,72V571q0,76-1.5,115.5T101,739q-9,14-30,16.5T15,758v34l193,38V281l93,91q45,44 67,66.5T390,471q0,11-21,17.5T309,495v35H569V495q-25,0-42-4.5T493,475t-42-33L307,314L505,90q19-22 33.5-34t31-16.5T611,35V0H348V35q33,0 45.5,3T406,46q-1,8-16,29t-39,50L245,253l-37-35V159q0-51 6.5-77.5T241,46t60-11V0H17Z" />
      <glyph unicode="l" glyph-name="gid93" horiz-adv-x="325" d="M209,830V156q0-50 6-75.5T240.5,46T298,35V0H22V35q40,2 60,11t27,33t7,70V580q0,54-1.5,90.5T110,720q-5,23-23.5,31T20,759v34l189,37Z" />
      <glyph unicode="m" glyph-name="gid94" horiz-adv-x="1073" d="M221,287V160q0-55 4.5-81t22-33.5T303,35V0H37V35q39,3 57,10.5t23.5,32T123,152V280q0,57-1.5,95.5T116,427q-5,26-20,33t-61,7v35l163,38l13-100h5q45,51 94.5,75.5T420,540q63,0 106.5-26T586,441h4q37,47 90.5,73T793,540q47,0 85.5-15.5T937,482q18-23 25.5-60.5T970,319V160q0-55 5-80.5T997.5,46T1053,35V0H787V35q38,2 56,10t23.5,32.5T872,152V278q0,115-26,161t-91,46q-43,0-82-24.5T612,395q-7-13-10.5-26t-5-31.5T595,287V160q0-55 5-80.5T622.5,46T679,35V0H413V35q38,3 56,10.5t23,32t5,74.5V278q0,78-11,123t-36,64.5T382,485q-44,0-84-24.5T238,395q-7-13-10.5-26t-5-31.5T221,287Z" />
      <glyph unicode="n" glyph-name="gid95" horiz-adv-x="689" d="M216,291V157q0-54 4.5-79T243,45t56-11V0H37V34q37,3 55,10.5T115.5,76t5.5,74V283q0,59-1.5,95.5T115,428q-6,27-21,34.5T35,470v32l160,38l12-99h4q38,47 89.5,73T411,540q46,0 84-15t58-41q17-23 24-59.5T584,324V157q0-54 5-79t22.5-33T665,34V0H406V34q38,2 55.5,10T484,76.5t5,73.5V282q0,113-26,158.5T375,486q-44,0-82-23.5T234,398q-7-13-11-25.5t-5.5-31T216,291Z" />
      <glyph unicode="o" glyph-name="gid97" horiz-adv-x="654" d="M325,540q57,0 108-20t89.5-56.5t61-86T606,269q0-61-22.5-112t-61-88.5T433,10.5T325-10q-56,0-106,20.5t-88.5,58T70,157T48,269q0,79 38,140t101,96t138,35Zm0-48q-49,0-86-28t-57.5-78.5T161,268q0-103 44.5-165T325,41q77,0 122.5,62T493,268q0,67-21,117t-58.5,78.5T325,492Z" />
      <glyph unicode="p" glyph-name="gid105" horiz-adv-x="679" d="M20-250v35q40,2 60.5,11t28,34T116-97V277q0,58-1.5,95.5T109,423q-4,24-22.5,32.5T18,464v34l192,38V458h4q32,38 69,60t86,22q76,0 134.5-35.5t92.5-98T630,264q0-81-34.5-143T502,24.5T368-10q-46,0-83.5,15.5T218,56h-4V-90q0-53 8-79t32.5-35T328-215v-35H20ZM363,39q68,0 111,58.5T517,260q0,69-20,121.5T441,463t-84,29q-36,0-66.5-16.5T240,429q-13-20-19.5-47.5T214,310V232q0-54 5.5-80T241,106q23-31 55.5-49T363,39Z" />
      <glyph unicode="q" glyph-name="gid107" horiz-adv-x="653" d="M360-250v35q43,1 66,11.5t32,36T467-97V72h-4Q428,29 390.5,9.5T300-10q-74,0-131,34T80,118.5T48,258T82.5,400.5t93,101.5T306,540q53,0 103.5-22T493,459l44,69h25V-90q0-55 6-81t28-34t69-10v-35H360ZM318,38q41,0 74,19.5T442,111q22,44 22,121v88q0,50-19,88.5T392.5,469T317,491q-71,0-113.5-61.5T161,265q0-104 42.5-165.5T318,38Z" />
      <glyph unicode="r" glyph-name="gid108" horiz-adv-x="477" d="M222,193V159q0-55 4.5-80.5t22-33T304,35V0H38V35q39,2 57,10t23.5,32.5T124,152V269q0,68-2,106.5T112,431T86,452t-50,4v35l175,38l14-124h4q27,60 75,97.5T403,540q32,0 50.5-15.5T472,483q0-24-15-37.5T414,432q-21,0-34,6.5T357,451t-22,6q-27,0-54-34.5T239,335q-8-28-12.5-65T222,193Z" />
      <glyph unicode="s" glyph-name="gid109" horiz-adv-x="454" d="M106,35L86,0H64V172H89q20-71 55-106t87-35q40,0 63.5,19.5T318,110q0,20-8.5,33.5t-33.5,31T202,222q-45,29-75,52T82,323T67,386q0,46 20,80.5t53.5,54T216,540q27,0 56-8.5T323,509l20,21h19V386H336q-22,61-48,87t-64,26q-34,0-54.5-18T149,431q0-33 23.5-54T247,324q58-36 93-62.5t51-54T407,142q0-70-46.5-111T240-10q-39,0-73,11.5T106,35Z" />
      <glyph unicode="t" glyph-name="gid111" horiz-adv-x="378" d="M100,467H40v37q53,32 83,62.5T169,640h29V514H332V467H198V163q0-70 14.5-97T267,39q25,0 43,10.5T344,85l25-19Q340-10 235-10q-66,0-100.5,32T100,112V467Z" />
      <glyph unicode="u" glyph-name="gid112" horiz-adv-x="670" d="M463,272v98q0,55-4.5,80t-22,33T380,495v35H561V223q0-57 1.5-93T567,76q5-25 20-32.5T648,36V1L483-11L472,109h-4q-38-61-87.5-90T277-10q-42,0-81.5,16T136,49q-32,42-32,162V370q0,41-2.5,65T91,471T66.5,487.5T21,495v35H202V257q0-108 26-157.5T309,50q88,0 137,115q10,23 13.5,43.5T463,272Z" />
      <glyph unicode="v" glyph-name="gid117" horiz-adv-x="610" d="M273-11L104,406q-16,41-28.5,59T47,488.5T5,495v35H270V495q-26-1-41-3t-20.5-9T203,460t4.5-31.5T217,398L323,108h4l91,215q21,50 30,80.5t9,52.5q0,23-12,31t-52,8v35H592V495q-16,0-29-8t-23-20q-10-14-22-41t-22-54t-18-44L331-11H273Z" />
      <glyph unicode="w" glyph-name="gid118" horiz-adv-x="852" d="M241-10L111,406q-11,37-23,56T58.5,488T12,495v35H277V495q-39,0-55-9t-16-31q0-10 3-23.5t8-33.5l68-239h4L436,530h31L600,159h4l60,162q17,45 25.5,71t12,41t3.5,26q0,22-13,29t-54,7v35H838V495q-15,0-25.5-4.5T792,473t-21.5-37T743,373L588-10H551L429,359h-4L278-10H241Z" />
      <glyph unicode="x" glyph-name="gid119" horiz-adv-x="609" d="M324,324l68,88q12,15 18,28t6,23q0,16-15,24t-44,8v35H576V495q-24,0-42.5-7t-37-24.5T454,415L351,284L484,109q31-40 57.5-57T598,35V0H332V35q36,0 50,5.5T396,62q0,7-8.5,21T359,122l-70,90L204,104q-5-6-8.5-12t-5-12T189,68q0-14 12-23.5T239,35V0H10V35q31,0 53.5,7.5T108,70t51,56L261,251L128,440q-22,32-41.5,43.5T38,495v35H284V495q-51,0-51-24q0-15 19-42l72-105Z" />
      <glyph unicode="y" glyph-name="gid120" horiz-adv-x="639" d="M499,328L281-157q-22-50-59-76.5T138-260q-31,0-47,11.5T75-213q0,25 17.5,37T157-157q41,7 62.5,23T260-81l35,70L103,406q-17,37-29.5,55.5T46,486.5T4,495v35H269V495q-34,0-50.5-8T202,462q0-13 8-41t20-57L340,98h5l91,225q18,44 27,67.5T475,427t3,24q0,26-14.5,35T408,495v35H628V495q-19,0-32.5-5.5t-26.5-22t-29.5-50T499,328Z" />
      <glyph unicode="z" glyph-name="gid123" horiz-adv-x="557" d="M515,155L498,0H18V4L364,488H253q-57,0-88.5-7t-46-27.5T97,392H65L81,530H511v-4L170,46H287q69,0 107,8t57,31.5T482,155h33Z" />
      <glyph unicode="{" glyph-name="gid179" horiz-adv-x="335" d="M208,198V0q0-54 17.5-84T294-128v-22q-67,0-105.5,13.5T134-89.5T118,4V200q0,30-8,59T82.5,307.5T29,330v25q56,11 72.5,41.5T118,484V659q0,64 13.5,101T182,813.5T290,830V807q-46-12-64-43t-18-84V501q0-41-7-73t-27.5-53T110,345v-5q41-7 62-25.5T200.5,267t7.5-69Z" />
      <glyph unicode="|" glyph-name="gid203" horiz-adv-x="290" d="M105,820h80V-250H105V820Z" />
      <glyph unicode="}" glyph-name="gid180" horiz-adv-x="335" d="M127,0V198q0,40 7.5,69t29,47.5T225,340v5q-42,9-63,30t-28,53t-7,73V680q0,53-17.5,84T45,807v23q71,0 108-16.5T203.5,760T217,659V484q0-57 16.5-87.5T306,355V330q-34-3-53.5-22.5T225,259t-8-59V4q0-60-16-93.5t-54.5-47T41-150v22q51,14 68.5,44T127,0Z" />
      <glyph unicode="~" glyph-name="gid220" horiz-adv-x="553" d="M118,249H84q9,53 38.5,83.5T194,363q29,0 62.5-11.5t68.5-23T391,317q19,0 29,9t17,33h33q-7-52-35.5-85T367,241q-28,0-63.5,12T232,277t-69,12q-19,0-28.5-8.5T118,249Z" />
      <glyph unicode="&#xa0;" glyph-name="gid155" horiz-adv-x="287" />
      <glyph unicode="&#xa1;" glyph-name="gid162" horiz-adv-x="308" d="M154-10q-30,0-47.5,19.5T89,56q0,20 1,35t4,36t10,59q6,35 11,68.5t8.5,74.5t5,97.5T130,563h48q0-80 2-136t5-97t8-74t11-66q8-40 11-62.5T218.5,90T219,56q0-27-17.5-46.5T154-10Zm0,659q-27,0-46,19T89,715q0,27 19,46t46,19q28,0 47-19t19-46q0-28-19-47t-47-19Z" />
      <glyph unicode="&#xa2;" glyph-name="gid205" horiz-adv-x="555" d="M288,663h50V540q50-1 88-12.5T485.5,497T507,452q0-19-13-30.5T458,410q-18,0-30,8t-31,33q-15,17-28.5,26.5T338,491V42q38,2 72.5,19T480,112l30-29q-30-36-74.5-59.5T338-7V-127H288V-10Q219-8 166,26T83,120.5T53,261q0,78 29,136.5t82,95T288,537V663ZM167,276Q167,75 288,46V491Q167,474 167,276Z" />
      <glyph unicode="&#xa3;" glyph-name="gid209" horiz-adv-x="680" d="M134-11Q91-11 65,11.5T39,71q0,41 29.5,67.5T143,165q25,0 52-7.5T249,134q3,11 4.5,29.5T255,194q0,30-11.5,79T214,370H75v61H195q-12,41-17.5,74T172,566q0,66 29,114t82,74t124,26q55,0 98.5-15T574,724t25-59q0-46-44-46q-22,0-33.5,11.5t-19,28.5T484,692.5t-31,28T397,732q-56,0-89-30t-33-81q0-16 3.5-40t9.5-47l26-103H531V370H327q8-30 11-51.5t3-48.5q0-95-34-159q35-9 83.5-15.5T476,89q95,0 148,69l10-4q0-86-40-125T488-10q-27,0-54.5,6T370,16.5T280,59Q261,29 219,9T134-11Zm19,56q50,0 82,38q-25,12-46.5,19T147,109q-19,0-31.5-8.5T103,77q0-16 13.5-24T153,45Z" />
      <glyph unicode="&#xa4;" glyph-name="gid206" horiz-adv-x="613" d="M65,57l71,71q-22,28-34.5,62T89,263q0,78 47,136L64,471l35,35l72-72q28,23 62,35t73,12t73-12t62-35l72,72l35-35l-72-72q48-59 48-136q0-39-12-73t-35-62l71-71L513,22L442,93Q384,46 306,46q-79,0-136,48L99,23L65,57Zm74,206q0-46 22.5-84T222,118.5T306,96t84,22.5T451,179t23,84t-23,84t-61,61t-84,23t-84-23t-60.5-61T139,263Z" />
      <glyph unicode="&#xa5;" glyph-name="gid210" horiz-adv-x="802" d="M626,235V175H454q1-58 8.5-87.5t31-39.5T563,38V0H239V38q47,0 70.5,10T341,87.5t8,87.5H172v60H349v69H172v60H314L149,646q-20,35-37,53.5T76.5,725T30,732v38H345V732q-57,0-74-7.5T254,698q0-21 23-60L432,373h4L549,563q21,36 34,61.5T602,668t6,30q0,19-14.5,26.5T543,732v38H772V732q-21,0-38-6.5t-34.5-24t-39-49.5T608,568L487,364H626V304H454V235H626Z" />
      <glyph unicode="&#xa6;" glyph-name="gid204" horiz-adv-x="298" d="M109,750h80V365H109V750Zm0-545h80V-180H109V205Z" />
      <glyph unicode="&#xa7;" glyph-name="gid198" horiz-adv-x="566" d="M273-174q-62,0-110,21T87.5-94.5T60-10q0,38 17.5,60.5T123,73q26,0 45-18t19-44q0-21-11-35.5t-22-26T143-74q0-14 19-27t50-20.5t66-7.5q65,0 101,29.5T415-18q0,25-10.5,45T369,67.5T302,112l-59,33q-98,55-139,103.5T63,361q0,108 99,148q-34,29-52.5,68.5T91,662q0,77 51.5,122.5T280,830q55,0 97.5-17.5t67-48T469,695q0-31-16.5-50.5T407,625q-26,0-42.5,15.5T348,681q0,18 7,28t14,17.5t7,17.5q0,20-28,33t-69,13q-54,0-84-25t-30-71q0-24 10-45t33.5-40.5T270,567l60-35q92-54 133-105t41-113q0-44-20.5-78.5T417,167q77-63 77-153q0-55-28-97.5T388-150T273-174ZM375,196q31,24 43.5,42T431,278q0,32-24,64.5T339,402L206,481q-38-20-53.5-37.5T137,401q0-31 20-59.5T213,292l162-96Z" />
      <glyph unicode="&#xa8;" glyph-name="gid249" horiz-adv-x="323" d="M20,745q0,25 16.5,41.5T78,803t41.5-16.5T136,745t-16.5-41.5T78,687T36.5,703.5T20,745Zm167,0q0,25 16.5,41.5T245,803t41.5-16.5T303,745t-16.5-41.5T245,687t-41.5,16.5T187,745Z" />
      <glyph unicode="&#xa9;" glyph-name="gid199" horiz-adv-x="888" d="M831,386q0-82-30-154T717.5,105.5t-124-85T442-10q-80,0-149.5,31T170,106.5t-83,126T57,385T86.5,537.5t82.5,126T291.5,749T441,780q81,0 151.5-30.5T717,665t84-125.5T831,386Zm-48,0q0,72-26.5,135T683,631.5t-109,74T441,732q-70,0-131.5-27t-107-75T131,519T105,385q0-72 26-134.5T203,140T310.5,65T442,38q71,0 132.5,27T683,140t73.5,111T783,386ZM584,305h33q-14-66-56.5-107T444,157q-66,0-115,27t-76,76T226,375q0,70 28.5,122.5t79,82T450,609q33,0 62.5-9.5T576,568l10,35h21l5-131H586q-12,45-47,71t-84,26q-67,0-104.5-50.5T313,379q0-88 37-134.5T457,198q98,0 127,107Z" />
      <glyph unicode="&#xaa;" glyph-name="gid129" horiz-adv-x="378" d="M135,507q-33,0-52.5,16.5T63,566t18.5,45T148,651l70,31v19q0,55-50,55q-22,0-31-5.5T123,725q-3-13-10-18.5T97,701q-12,0-18.5,7T72,730q0,20 28,35t77,15q53,0 75-17.5T274,703V591q0-58 22-58q15,0 24,13l7-12q-7-12-24-19.5T267,507q-44,0-44,48h-4q-13-22-35-35t-49-13Zm25,35q23,0 40.5,23.5T218,620v34q-51-19-72-37t-21-37q0-16 9.5-27T160,542Z" />
      <glyph unicode="&#xab;" glyph-name="gid189" horiz-adv-x="489" d="M219,104L49,262L219,421l20-21L140,262l98-138l-19-20Zm171,0L220,262L390,421l20-21L311,262l98-138l-19-20Z" />
      <glyph unicode="&#xac;" glyph-name="gid221" horiz-adv-x="625" d="M491,110V313H83v50H541V110H491Z" />
      <glyph unicode="&#xae;" glyph-name="gid200" horiz-adv-x="888" d="M831,386q0-82-30-154T717.5,105.5t-124-85T442-10q-80,0-149.5,31T170,106.5t-83,126T57,385T86.5,537.5t82.5,126T291.5,749T441,780q81,0 151.5-30.5T717,665t84-125.5T831,386Zm-48,0q0,72-26.5,135T683,631.5t-109,74T441,732q-70,0-131.5-27t-107-75T131,519T105,385q0-72 26-134.5T203,140T310.5,65T442,38q71,0 132.5,27T683,140t73.5,111T783,386ZM592,507q0-45-26-75t-82-39L608,243q26-31 67-38V183H567L429,354q-13,19-24.5,24T369,383V271q0-27 4.5-41t20-19.5T441,205V183H243v22q36,2 46,13.5T299,268V527q0,38-9,50t-41,13v25H424q80,0 124-29t44-79ZM369,576V416h40q50,0 75,21t25,67q0,44-20.5,62.5T424,585H378q-9,0-9-9Z" />
      <glyph unicode="&#xaf;" glyph-name="gid257" horiz-adv-x="310" d="M290,701H20v58H290V701Z" />
      <glyph unicode="&#xb0;" glyph-name="gid202" horiz-adv-x="346" d="M53,660q0,33 16.5,60.5T113,764t60,16t60.5-16T277,720.5T293,660t-16-60t-43.5-43.5T173,540t-60,16.5T69.5,600T53,660Zm30,0q0-37 26.5-63.5T173,570t63,26.5T262,660t-26,63t-63,26t-63.5-26T83,660Z" />
      <glyph unicode="&#xb1;" glyph-name="gid219" horiz-adv-x="634" d="M343,234H291V443H83v50H291V702h52V493H551V443H343V234Zm208-89V95H83v50H551Z" />
      <glyph unicode="&#xb2;" glyph-name="gid152" horiz-adv-x="285" d="M97,511v-4h85q20,0 30,9t18,37h20l-15-85H34v13q61,55 93.5,92t45,65T185,694q0,29-14.5,46T130,757q-21,0-35-14.5T81,706q0-19 12.5-31T125,663q-1-11-11-18.5T89,637q-22,0-36.5,17T38,697q0,36 28,59.5T137,780q44,0 72.5-24T238,694q0-49-41-94T97,511Z" />
      <glyph unicode="&#xb3;" glyph-name="gid153" horiz-adv-x="279" d="M131,464q-42,0-69,20T35,535q0,22 13.5,36.5T81,586q13,0 23.5-6.5T117,563q-15,0-25-9.5T82,529q0-18 13.5-29.5T130,488q56,0 56,66q0,32-13.5,49.5T135,621q-14-7-27-7q-18,0-18,16q0,14 17,14q12,0 25-5q21,0 34,18.5T179,707q0,51-47,51q-40,0-40-31q0-11 7.5-18.5T120,701q-1-8-11-14t-22-6q-17,0-28.5,12.5T47,724q0,26 23.5,41T132,780q46,0 73-19.5T232,709q0-27-18.5-47.5T167,635v-4q32-7 53.5-28.5T242,551q0-37-31.5-62T131,464Z" />
      <glyph unicode="&#xb4;" glyph-name="gid252" horiz-adv-x="275" d="M67,651H20L150,770q36,33 67,33q17,0 27.5-9T255,768q0-16-13.5-28.5T204,716L67,651Z" />
      <glyph unicode="&#xb5;" glyph-name="gid223" horiz-adv-x="721" d="M207,82l-4-1q2-39 8.5-80.5t14-80t13-67.5t5.5-43q0-32-15-51t-41-19q-25,0-41.5,18T130-198V370q0,53-6,80t-23.5,36T47,495v35H228V257q0-112 25.5-162.5T336,44q44,0 76.5,29T472,165q11,23 14,44t3,63v98q0,54-6,80.5T459.5,486T406,495v35H587V223q0-111 6-147q5-25 20-32.5T674,36V1L509-11L498,109h-4q-31-58-73.5-88.5T331-10q-40,0-72,23.5T207,82Z" />
      <glyph unicode="&#xb6;" glyph-name="gid197" horiz-adv-x="631" d="M473,573V63q0-56 3.5-97T486-91q7-19 28.5-27.5T582-127v-38H399V726H347V-165H153v38q53,0 77.5,9T262-88q3,9 5,32.5t3.5,55T272,63V373q-8,0-15.5-0.5T238,372q-95,0-148.5,50.5T36,564q0,100 69.5,153T306,770H582V732q-49,0-69-7.5T484,696q-6-16-8.5-42.5T473,573Z" />
      <glyph unicode="&#xb7;" glyph-name="gid165" horiz-adv-x="285" d="M77,274q0,28 19,47t46,19q28,0 47-19t19-47q0-27-19-46t-47-19q-27,0-46,19T77,274Z" />
      <glyph unicode="&#xb8;" glyph-name="gid258" horiz-adv-x="232" d="M154,12L123-72q62,0 93-21t31-65q0-47-34-74.5T121-260q-51,0-83,21T6-184q0,36 31,36q11,0 17.5-6.5T70-180q9-21 19-29t26-8q22,0 36,14t14,36q0,54-79,54q-7,0-17-0.5T51-115l-3,5L101,12h53Z" />
      <glyph unicode="&#xb9;" glyph-name="gid151" horiz-adv-x="246" d="M147,780V538q0-31 7.5-40T189,488V468H61v20q27,2 34.5,10.5T103,535V672q0,23 0,38.5T101,730q-1,8-11.5,10.5T59,743v20q21,1 44,5.5T147,780Z" />
      <glyph unicode="&#xba;" glyph-name="gid130" horiz-adv-x="383" d="M190,780q38,0 69.5-17.5t51-48T330,645q0-40-19.5-71t-51-49T190,507q-37,0-68,18T72,574T53,645q0,39 19,69.5t50,48T190,780Zm0-26q-32,0-52.5-30.5T117,645q0-50 20-80.5T190,534q34,0 54.5,30.5T265,645q0,48-20.5,78.5T190,754Z" />
      <glyph unicode="&#xbb;" glyph-name="gid190" horiz-adv-x="489" d="M440,262L270,104l-19,20l98,138L250,400l20,21L440,262Zm-171,0L99,104L80,124l98,138L79,400l20,21L269,262Z" />
      <glyph unicode="&#xbc;" glyph-name="gid145" horiz-adv-x="669" d="M632,770L88,0H31L584,770h48ZM219,780V538q0-31 7.5-40T261,488V468H133v20q27,2 34.5,10.5T175,535V672q0,23 0,38.5T173,730q-1,8-11.5,10.5T131,743v20q21,1 44,5.5T219,780ZM425,0V15q27,2 34.5,10.5T467,62V72H353V97L494,312h22V96q26,1 31.5,7t5.5,29h19V38H553q0,22-6,28t-31,7V65q0-31 6-40t26-10V0H425ZM378,97h89V227h-4L378,97Z" />
      <glyph unicode="&#xbd;" glyph-name="gid142" horiz-adv-x="675" d="M632,770L88,0H31L584,770h48ZM219,780V538q0-31 7.5-40T261,488V468H133v20q27,2 34.5,10.5T175,535V672q0,23 0,38.5T173,730q-1,8-11.5,10.5T131,743v20q21,1 44,5.5T219,780ZM432,43V39h85q20,0 30,9t18,37h20L570,0H369V13q61,55 93.5,92t45,65T520,226q0,29-14.5,46T465,289q-21,0-35-14.5T416,238q0-19 12.5-31T460,195q-1-11-11-18.5T424,169q-22,0-36.5,17T373,229q0,36 28,59.5T472,312q44,0 72.5-24T573,226q0-49-41-94T432,43Z" />
      <glyph unicode="&#xbe;" glyph-name="gid146" horiz-adv-x="671" d="M641,770L97,0H40L593,770h48ZM432,0V15q27,2 34.5,10.5T474,62V72H360V97L501,312h22V96q26,1 31.5,7t5.5,29h19V38H560q0,22-6,28t-31,7V65q0-31 6-40t26-10V0H432ZM385,97h89V227h-4L385,97ZM177,464q-42,0-69,20T81,535q0,22 13.5,36.5T127,586q13,0 23.5-6.5T163,563q-15,0-25-9.5T128,529q0-18 13.5-29.5T176,488q56,0 56,66q0,32-13.5,49.5T181,621q-14-7-27-7q-18,0-18,16q0,14 17,14q12,0 25-5q21,0 34,18.5T225,707q0,51-47,51q-40,0-40-31q0-11 7.5-18.5T166,701q-1-8-11-14t-22-6q-17,0-28.5,12.5T93,724q0,26 23.5,41T178,780q46,0 73-19.5T278,709q0-27-18.5-47.5T213,635v-4q32-7 53.5-28.5T288,551q0-37-31.5-62T177,464Z" />
      <glyph unicode="&#xbf;" glyph-name="gid164" horiz-adv-x="399" d="M219,533h55V304H245q-130,0-130-99q0-48 25.5-82T202,89q18,0 38.5,5.5T277,100q23,0 38-15t15-39q0-56-62-56q-41,0-79,20.5T121.5,66T75,146T58,240q0,76 42.5,118T219,400V533Zm96,182q0-28-19-47t-46-19q-28,0-47,19t-19,47q0,27 19,46t47,19q27,0 46-19t19-46Z" />
      <glyph unicode="&#xc0;" glyph-name="gid6" horiz-adv-x="772" d="M-6,0V38q46,5 69,21.5T103,119L363,770h43L633,206q23-56 40-89.5t33-50t34.5-22T785,39V0H459V39q53,0 73,10t20,33q0,20-4.5,37.5T529,171L488,279H221q-34-82-48-127T159,87q0-28 18.5-38.5T237,38V0H-6ZM241,329H469L360,624h-4L241,329ZM504,850H444L324,878q-34,8-54.5,19.5T249,925q0,17 10.5,26t27.5,9q20,0 39.5-8T374,927l130-77Z" />
      <glyph unicode="&#xc1;" glyph-name="gid2" horiz-adv-x="772" d="M-6,0V38q46,5 69,21.5T103,119L363,770h43L633,206q23-56 40-89.5t33-50t34.5-22T785,39V0H459V39q53,0 73,10t20,33q0,20-4.5,37.5T529,171L488,279H221q-34-82-48-127T159,87q0-28 18.5-38.5T237,38V0H-6ZM241,329H469L360,624h-4L241,329ZM354,850H294l130,77q28,17 47.5,25t39.5,8q17,0 27.5-9T549,925q0-16-20.5-27.5T474,878L354,850Z" />
      <glyph unicode="&#xc2;" glyph-name="gid4" horiz-adv-x="772" d="M-6,0V38q46,5 69,21.5T103,119L363,770h43L633,206q23-56 40-89.5t33-50t34.5-22T785,39V0H459V39q53,0 73,10t20,33q0,20-4.5,37.5T529,171L488,279H221q-34-82-48-127T159,87q0-28 18.5-38.5T237,38V0H-6ZM241,329H469L360,624h-4L241,329Zm88,641H439L548,861H503L384,915L265,861H220L329,970Z" />
      <glyph unicode="&#xc3;" glyph-name="gid8" horiz-adv-x="772" d="M-6,0V38q46,5 69,21.5T103,119L363,770h43L633,206q23-56 40-89.5t33-50t34.5-22T785,39V0H459V39q53,0 73,10t20,33q0,20-4.5,37.5T529,171L488,279H221q-34-82-48-127T159,87q0-28 18.5-38.5T237,38V0H-6ZM241,329H469L360,624h-4L241,329ZM213,846q8,51 37.5,82.5T319,960q27,0 52.5-11.5t51.5-23T474,914q19,0 29.5,9.5T521,956h33q-3-33-17.5-60t-36-42.5T454,838q-20,0-40,7.5t-40.5,17t-41,16.5T292,886q-19,0-28.5-8.5T247,846H213Z" />
      <glyph unicode="&#xc4;" glyph-name="gid5" horiz-adv-x="772" d="M-6,0V38q46,5 69,21.5T103,119L363,770h43L633,206q23-56 40-89.5t33-50t34.5-22T785,39V0H459V39q53,0 73,10t20,33q0,20-4.5,37.5T529,171L488,279H221q-34-82-48-127T159,87q0-28 18.5-38.5T237,38V0H-6ZM241,329H469L360,624h-4L241,329Zm2,581q0,21 14.5,35.5T293,960q22,0 36.5-14.5T344,910q0-22-14.5-36.5T293,859q-21,0-35.5,14.5T243,910Zm182,0q0,21 14.5,35.5T476,960q21,0 35.5-14.5T526,910q0-22-14.5-36.5T476,859q-22,0-36.5,14.5T425,910Z" />
      <glyph unicode="&#xc5;" glyph-name="gid7" horiz-adv-x="772" d="M-6,0V38q46,5 69,21.5T103,119L363,770h43L633,206q23-56 40-89.5t33-50t34.5-22T785,39V0H459V39q53,0 73,10t20,33q0,20-4.5,37.5T529,171L488,279H221q-34-82-48-127T159,87q0-28 18.5-38.5T237,38V0H-6ZM241,329H469L360,624h-4L241,329Zm78,566q0,28 18.5,46.5T384,960t46.5-18.5T449,895t-18.5-46.5T384,830t-46.5,18.5T319,895Zm31,0q0-15 9.5-24.5T384,861q14,0 23.5,9.5T417,895q0,14-9.5,23.5T384,928q-15,0-24.5-9.5T350,895Z" />
      <glyph unicode="&#xc6;" glyph-name="gid9" horiz-adv-x="1051" d="M-11,0V38q31,4 50,12T72.5,74.5T102,119q11,20 24,42.5t32.5,58t50,93.5T286,461T402,684q3,7 5,12.5t2,10.5q0,14-18.5,19.5T326,732v38H962V594H927q-8,53-28.5,82t-61,40T729,727H602q-17,0-17-17V423q48,0 82.5,5t57,17.5t34.5,35T774,538h35V265H774q-5,35-16.5,58T725,359t-55,18.5T585,383V157q0-43 15.5-68T652,53.5T751,43q71,0 113.5,14T931,104.5T968,197h38L991,0H370V38q47,2 70.5,10.5T472,81t8,71V284H249q-15-30-31-59.5T188.5,168t-22-50T158,78q0-20 11.5-27.5t28.5-9T231,38V0H-11ZM273,329H480V721L273,329Z" />
      <glyph unicode="&#xc7;" glyph-name="gid12" horiz-adv-x="802" d="M671,708l18,62h28l9-230H689q-22,87-85,137.5T452,728q-81,0-138.5-42T225,565.5T194,378q0-160 67.5-247T455,44q95,0 158,52t90,153h41V0H709L686,79Q581-10 432-10Q319-10 235.5,37T106,169.5T60,372q0,91 27.5,165.5t78.5,129t121.5,84T443,780q60,0 113.5-17T671,708ZM464,12L433-72q62,0 93-21t31-65q0-47-34-74.5T431-260q-51,0-83,21t-32,55q0,36 31,36q11,0 17.5-6.5T380-180q9-21 19-29t26-8q22,0 36,14t14,36q0,54-79,54q-7,0-17-0.5T361-115l-3,5L411,12h53Z" />
      <glyph unicode="&#xc8;" glyph-name="gid20" horiz-adv-x="726" d="M260,710V423q54,0 90.5,6.5t58,20.5t31,36t9.5,52h35V265H449q0,30-8.5,52T411,353.5t-58,22T260,383V157q0-43 15.5-68T327,53.5T426,43q71,0 113.5,14T606,104.5T643,197h38L666,0H45V38q47,2 70.5,10.5T147,81t8,71V618q0,47-7,70.5T119.5,721T55,732v38H633l9-176H607q-8,53-29.5,82T514,716T404,727H277q-8,0-12.5-4.5T260,710ZM499,850H439L319,878q-34,8-54.5,19.5T244,925q0,17 10.5,26t27.5,9q20,0 39.5-8T369,927l130-77Z" />
      <glyph unicode="&#xc9;" glyph-name="gid17" horiz-adv-x="726" d="M260,710V423q54,0 90.5,6.5t58,20.5t31,36t9.5,52h35V265H449q0,30-8.5,52T411,353.5t-58,22T260,383V157q0-43 15.5-68T327,53.5T426,43q71,0 113.5,14T606,104.5T643,197h38L666,0H45V38q47,2 70.5,10.5T147,81t8,71V618q0,47-7,70.5T119.5,721T55,732v38H633l9-176H607q-8,53-29.5,82T514,716T404,727H277q-8,0-12.5-4.5T260,710Zm89,140H289l130,77q28,17 47.5,25t39.5,8q17,0 27.5-9T544,925q0-16-20.5-27.5T469,878L349,850Z" />
      <glyph unicode="&#xca;" glyph-name="gid18" horiz-adv-x="726" d="M260,710V423q54,0 90.5,6.5t58,20.5t31,36t9.5,52h35V265H449q0,30-8.5,52T411,353.5t-58,22T260,383V157q0-43 15.5-68T327,53.5T426,43q71,0 113.5,14T606,104.5T643,197h38L666,0H45V38q47,2 70.5,10.5T147,81t8,71V618q0,47-7,70.5T119.5,721T55,732v38H633l9-176H607q-8,53-29.5,82T514,716T404,727H277q-8,0-12.5-4.5T260,710Zm64,260H434L543,861H498L379,915L260,861H215L324,970Z" />
      <glyph unicode="&#xcb;" glyph-name="gid19" horiz-adv-x="726" d="M260,710V423q54,0 90.5,6.5t58,20.5t31,36t9.5,52h35V265H449q0,30-8.5,52T411,353.5t-58,22T260,383V157q0-43 15.5-68T327,53.5T426,43q71,0 113.5,14T606,104.5T643,197h38L666,0H45V38q47,2 70.5,10.5T147,81t8,71V618q0,47-7,70.5T119.5,721T55,732v38H633l9-176H607q-8,53-29.5,82T514,716T404,727H277q-8,0-12.5-4.5T260,710ZM238,910q0,21 14.5,35.5T288,960q22,0 36.5-14.5T339,910q0-22-14.5-36.5T288,859q-21,0-35.5,14.5T238,910Zm182,0q0,21 14.5,35.5T471,960q21,0 35.5-14.5T521,910q0-22-14.5-36.5T471,859q-22,0-36.5,14.5T420,910Z" />
      <glyph unicode="&#xcc;" glyph-name="gid28" horiz-adv-x="415" d="M45,0V38q47,2 70.5,12T147,90t8,92V588q0,57-7,87t-28.5,42.5T55,732v38H359V732q-43-1-64-13.5T267,674t-7-93V189q0-66 7.5-97.5t31-41.5T369,38V0H45ZM326,850H266L146,878q-34,8-54.5,19.5T71,925q0,17 10.5,26t27.5,9q20,0 39.5-8T196,927l130-77Z" />
      <glyph unicode="&#xcd;" glyph-name="gid25" horiz-adv-x="415" d="M45,0V38q47,2 70.5,12T147,90t8,92V588q0,57-7,87t-28.5,42.5T55,732v38H359V732q-43-1-64-13.5T267,674t-7-93V189q0-66 7.5-97.5t31-41.5T369,38V0H45ZM176,850H116l130,77q28,17 47.5,25t39.5,8q17,0 27.5-9T371,925q0-16-20.5-27.5T296,878L176,850Z" />
      <glyph unicode="&#xce;" glyph-name="gid26" horiz-adv-x="415" d="M45,0V38q47,2 70.5,12T147,90t8,92V588q0,57-7,87t-28.5,42.5T55,732v38H359V732q-43-1-64-13.5T267,674t-7-93V189q0-66 7.5-97.5t31-41.5T369,38V0H45ZM151,970H261L370,861H325L206,915L87,861H42L151,970Z" />
      <glyph unicode="&#xcf;" glyph-name="gid27" horiz-adv-x="415" d="M45,0V38q47,2 70.5,12T147,90t8,92V588q0,57-7,87t-28.5,42.5T55,732v38H359V732q-43-1-64-13.5T267,674t-7-93V189q0-66 7.5-97.5t31-41.5T369,38V0H45ZM65,910q0,21 14.5,35.5T115,960q22,0 36.5-14.5T166,910q0-22-14.5-36.5T115,859q-21,0-35.5,14.5T65,910Zm182,0q0,21 14.5,35.5T298,960q21,0 35.5-14.5T348,910q0-22-14.5-36.5T298,859q-22,0-36.5,14.5T247,910Z" />
      <glyph unicode="&#xd0;" glyph-name="gid15" horiz-adv-x="882" d="M36,0V38q51,2 77,10.5T147.5,81t8.5,71V358H66v54h90V618q0,47-7,70.5T120.5,721T56,732v38H407q90,0 166-29.5t132-83T792,531t31-159q0-82-29-150T712,104T586.5,27T427,0H36ZM410,49q136,0 209.5,82T693,370q0,111-35,189.5t-99.5,120T405,721H278q-17,0-17-17V412H401V358H261V163Q261,49 410,49Z" />
      <glyph unicode="&#xd1;" glyph-name="gid35" horiz-adv-x="902" d="M694-10L219,616h-4V189q0-66 7-97.5T250.5,50T314,38V0H45V38q47,2 70.5,12T147,90t8,92V588q0,57-7,87t-28.5,42.5T55,732v38H253L690,187h4V581q0,66-7,97.5t-28,42T595,732v38H864V732q-47-1-70.5-11.5T762,680t-8-92V-10H694ZM293,846q8,51 37.5,82.5T399,960q27,0 52.5-11.5t51.5-23T554,914q19,0 29.5,9.5T601,956h33q-3-33-17.5-60t-36-42.5T534,838q-20,0-40,7.5t-40.5,17t-41,16.5T372,886q-19,0-28.5-8.5T327,846H293Z" />
      <glyph unicode="&#xd2;" glyph-name="gid40" horiz-adv-x="946" d="M473,780q88,0 163.5-30.5t132-85T857,537t32-158q0-81-32-152T768,103T635.5,20T473-10T310.5,20T178,103T89,227T57,379q0,85 32,158t88.5,127.5t132,85T473,780Zm0-735q88,0 152,40.5t99,115T759,376q0,107-35,185.5t-99,121T473,725T321,682.5t-99-121T187,376q0-101 35-175.5t99-115T473,45ZM594,840H534L414,868q-34,8-54.5,19.5T339,915q0,17 10.5,26t27.5,9q20,0 39.5-8T464,917l130-77Z" />
      <glyph unicode="&#xd3;" glyph-name="gid37" horiz-adv-x="946" d="M473,780q88,0 163.5-30.5t132-85T857,537t32-158q0-81-32-152T768,103T635.5,20T473-10T310.5,20T178,103T89,227T57,379q0,85 32,158t88.5,127.5t132,85T473,780Zm0-735q88,0 152,40.5t99,115T759,376q0,107-35,185.5t-99,121T473,725T321,682.5t-99-121T187,376q0-101 35-175.5t99-115T473,45ZM444,840H384l130,77q28,17 47.5,25t39.5,8q17,0 27.5-9T639,915q0-16-20.5-27.5T564,868L444,840Z" />
      <glyph unicode="&#xd4;" glyph-name="gid38" horiz-adv-x="946" d="M473,780q88,0 163.5-30.5t132-85T857,537t32-158q0-81-32-152T768,103T635.5,20T473-10T310.5,20T178,103T89,227T57,379q0,85 32,158t88.5,127.5t132,85T473,780Zm0-735q88,0 152,40.5t99,115T759,376q0,107-35,185.5t-99,121T473,725T321,682.5t-99-121T187,376q0-101 35-175.5t99-115T473,45ZM419,960H529L638,851H593L474,905L355,851H310L419,960Z" />
      <glyph unicode="&#xd5;" glyph-name="gid42" horiz-adv-x="946" d="M473,780q88,0 163.5-30.5t132-85T857,537t32-158q0-81-32-152T768,103T635.5,20T473-10T310.5,20T178,103T89,227T57,379q0,85 32,158t88.5,127.5t132,85T473,780Zm0-735q88,0 152,40.5t99,115T759,376q0,107-35,185.5t-99,121T473,725T321,682.5t-99-121T187,376q0-101 35-175.5t99-115T473,45ZM303,836q8,51 37.5,82.5T409,950q27,0 52.5-11.5t51.5-23T564,904q19,0 29.5,9.5T611,946h33q-3-33-17.5-60t-36-42.5T544,828q-20,0-40,7.5t-40.5,17t-41,16.5T382,876q-19,0-28.5-8.5T337,836H303Z" />
      <glyph unicode="&#xd6;" glyph-name="gid39" horiz-adv-x="946" d="M473,780q88,0 163.5-30.5t132-85T857,537t32-158q0-81-32-152T768,103T635.5,20T473-10T310.5,20T178,103T89,227T57,379q0,85 32,158t88.5,127.5t132,85T473,780Zm0-735q88,0 152,40.5t99,115T759,376q0,107-35,185.5t-99,121T473,725T321,682.5t-99-121T187,376q0-101 35-175.5t99-115T473,45ZM333,900q0,21 14.5,35.5T383,950q22,0 36.5-14.5T434,900q0-22-14.5-36.5T383,849q-21,0-35.5,14.5T333,900Zm182,0q0,21 14.5,35.5T566,950q21,0 35.5-14.5T616,900q0-22-14.5-36.5T566,849q-22,0-36.5,14.5T515,900Z" />
      <glyph unicode="&#xd7;" glyph-name="gid214" horiz-adv-x="519" d="M105,147L68,184L223,339L69,493l35,35L258,374L413,529l37-37L295,337L449,183l-35-35L260,302L105,147Z" />
      <glyph unicode="&#xd8;" glyph-name="gid41" horiz-adv-x="946" d="M63-81L782,830h69L131-81H63ZM473,780q88,0 163.5-30.5t132-85T857,537t32-158q0-81-32-152T768,103T635.5,20T473-10T310.5,20T178,103T89,227T57,379q0,85 32,158t88.5,127.5t132,85T473,780Zm0-735q88,0 152,40.5t99,115T759,376q0,107-35,185.5t-99,121T473,725T321,682.5t-99-121T187,376q0-101 35-175.5t99-115T473,45Z" />
      <glyph unicode="&#xd9;" glyph-name="gid54" horiz-adv-x="861" d="M722,512V310q0-105-28.5-176.5T602,26T434-10q-98,0-163.5,27t-98,89T140,273V537q0,50-1,83.5T133,676t-17,34q-12,13-32.5,17.5T29,732v38H370V732q-34,0-55-4t-33-20q-13-18-17.5-57.5T260,537V265q0-102 45-157.5T462,52q100,0 150,56t50,163V512q0,89-6.5,135T629,712q-13,13-34.5,16.5T542,732v38H832V732q-31,0-52-5t-33-22q-15-21-20-65.5T722,512ZM579,850H519L399,878q-34,8-54.5,19.5T324,925q0,17 10.5,26t27.5,9q20,0 39.5-8T449,927l130-77Z" />
      <glyph unicode="&#xda;" glyph-name="gid51" horiz-adv-x="861" d="M722,512V310q0-105-28.5-176.5T602,26T434-10q-98,0-163.5,27t-98,89T140,273V537q0,50-1,83.5T133,676t-17,34q-12,13-32.5,17.5T29,732v38H370V732q-34,0-55-4t-33-20q-13-18-17.5-57.5T260,537V265q0-102 45-157.5T462,52q100,0 150,56t50,163V512q0,89-6.5,135T629,712q-13,13-34.5,16.5T542,732v38H832V732q-31,0-52-5t-33-22q-15-21-20-65.5T722,512ZM429,850H369l130,77q28,17 47.5,25t39.5,8q17,0 27.5-9T624,925q0-16-20.5-27.5T549,878L429,850Z" />
      <glyph unicode="&#xdb;" glyph-name="gid52" horiz-adv-x="861" d="M722,512V310q0-105-28.5-176.5T602,26T434-10q-98,0-163.5,27t-98,89T140,273V537q0,50-1,83.5T133,676t-17,34q-12,13-32.5,17.5T29,732v38H370V732q-34,0-55-4t-33-20q-13-18-17.5-57.5T260,537V265q0-102 45-157.5T462,52q100,0 150,56t50,163V512q0,89-6.5,135T629,712q-13,13-34.5,16.5T542,732v38H832V732q-31,0-52-5t-33-22q-15-21-20-65.5T722,512ZM404,970H514L623,861H578L459,915L340,861H295L404,970Z" />
      <glyph unicode="&#xdc;" glyph-name="gid53" horiz-adv-x="861" d="M722,512V310q0-105-28.5-176.5T602,26T434-10q-98,0-163.5,27t-98,89T140,273V537q0,50-1,83.5T133,676t-17,34q-12,13-32.5,17.5T29,732v38H370V732q-34,0-55-4t-33-20q-13-18-17.5-57.5T260,537V265q0-102 45-157.5T462,52q100,0 150,56t50,163V512q0,89-6.5,135T629,712q-13,13-34.5,16.5T542,732v38H832V732q-31,0-52-5t-33-22q-15-21-20-65.5T722,512ZM318,910q0,21 14.5,35.5T368,960q22,0 36.5-14.5T419,910q0-22-14.5-36.5T368,859q-21,0-35.5,14.5T318,910Zm182,0q0,21 14.5,35.5T551,960q21,0 35.5-14.5T601,910q0-22-14.5-36.5T551,859q-22,0-36.5,14.5T500,910Z" />
      <glyph unicode="&#xdd;" glyph-name="gid59" horiz-adv-x="733" d="M204,0V38q48,0 71.5,10.5t31,41.5t7.5,92V304L114,646q-20,35-37,53.5T41.5,725T-5,732v38H310V732q-49,0-70-7.5T219,698q0-10 5.5-25T242,638L397,373h4L514,563q32,53 45.5,84.5T573,698t-14.5,26.5T508,732v38H737V732q-21,0-38-6.5t-34.5-24t-39-49.5T573,568L419,308V189q0-65 7.5-97.5t30.5-43T528,38V0H204ZM378,850H318l130,77q28,17 47.5,25t39.5,8q17,0 27.5-9T573,925q0-16-20.5-27.5T498,878L378,850Z" />
      <glyph unicode="&#xde;" glyph-name="gid45" horiz-adv-x="699" d="M262,613V596H371q92,0 156.5-26T626,498t34-107q0-70-30.5-118t-98-72.5T352,176H262V157q0-49 9.5-75t39-35T400,38V0H47V38q47,2 70.5,10.5T149,81t8,71V618q0,47-8,71t-31.5,33T47,732v38H400V732q-60,0-89.5-9t-39-34.5T262,613Zm0-81V226h71q99,0 148,38.5T530,391q0,84-38.5,121T371,549H279q-17,0-17-17Z" />
      <glyph unicode="&#xdf;" glyph-name="gid110" horiz-adv-x="683" d="M49,0V38q38,0 56,7.5T129,78t6,75V566q0,77 25,136.5T235.5,796T362,830q56,0 102.5-18.5t74-51.5T566,683q0-34-16-61t-39-50t-46.5-45.5T425,479t-16-55q0-26 14.5-43.5t42-34.5T531,302q36-25 62-47t40-48t14-66q0-71-46.5-111T465-10q-69,0-113,23T308,73q0,20 12,33t28,13q13,0 21.5-7T385,94.5T398,74q11-17 28-29.5T475,32q42,0 61,21t19,53q0,22-9,39t-30.5,35T456,221t-68,42t-47.5,45T323,376q0,40 14,68.5t35,52T413.5,544T448,597.5T462,669q0,52-26,81.5T354,780q-73,0-99-53T229,572V0H49Z" />
      <glyph unicode="&#xe0;" glyph-name="gid65" horiz-adv-x="554" d="M444-10q-43,0-65,28T357,97h-5q-27-49-73-77.5T177-9Q136-9 106,6T59.5,47.5T43,110q0,47 35,86.5T205,276l144,63v41q0,63-25.5,92.5T243,502q-32,0-46.5-13T169,437q-11-28-21.5-38T117,389q-24,0-37,13T67,439q0,48 51,74.5T263,540q101,0 142.5-35T447,384V160q0-62 12-88t38-26q10,0 23.5,4.5T541,68l14-24Q543,21 511,5.5T444-10ZM222,51q36,0 65,22.5T332.5,134T349,217v79q-76-29-121-57t-64.5-55.5T144,127q0-34 22-55t56-21ZM353,651H306L169,716q-24,11-37.5,23.5T118,768q0,17 10.5,26t27.5,9q31,0 67-33L353,651Z" />
      <glyph unicode="&#xe1;" glyph-name="gid62" horiz-adv-x="554" d="M444-10q-43,0-65,28T357,97h-5q-27-49-73-77.5T177-9Q136-9 106,6T59.5,47.5T43,110q0,47 35,86.5T205,276l144,63v41q0,63-25.5,92.5T243,502q-32,0-46.5-13T169,437q-11-28-21.5-38T117,389q-24,0-37,13T67,439q0,48 51,74.5T263,540q101,0 142.5-35T447,384V160q0-62 12-88t38-26q10,0 23.5,4.5T541,68l14-24Q543,21 511,5.5T444-10ZM222,51q36,0 65,22.5T332.5,134T349,217v79q-76-29-121-57t-64.5-55.5T144,127q0-34 22-55t56-21Zm14,600H189L319,770q36,33 67,33q17,0 27.5-9T424,768q0-16-13.5-28.5T373,716L236,651Z" />
      <glyph unicode="&#xe2;" glyph-name="gid63" horiz-adv-x="554" d="M444-10q-43,0-65,28T357,97h-5q-27-49-73-77.5T177-9Q136-9 106,6T59.5,47.5T43,110q0,47 35,86.5T205,276l144,63v41q0,63-25.5,92.5T243,502q-32,0-46.5-13T169,437q-11-28-21.5-38T117,389q-24,0-37,13T67,439q0,48 51,74.5T263,540q101,0 142.5-35T447,384V160q0-62 12-88t38-26q10,0 23.5,4.5T541,68l14-24Q543,21 511,5.5T444-10ZM222,51q36,0 65,22.5T332.5,134T349,217v79q-76-29-121-57t-64.5-55.5T144,127q0-34 22-55t56-21Zm-4,729h90L427,651H382L263,719L144,651H99L218,780Z" />
      <glyph unicode="&#xe3;" glyph-name="gid67" horiz-adv-x="554" d="M444-10q-43,0-65,28T357,97h-5q-27-49-73-77.5T177-9Q136-9 106,6T59.5,47.5T43,110q0,47 35,86.5T205,276l144,63v41q0,63-25.5,92.5T243,502q-32,0-46.5-13T169,437q-11-28-21.5-38T117,389q-24,0-37,13T67,439q0,48 51,74.5T263,540q101,0 142.5-35T447,384V160q0-62 12-88t38-26q10,0 23.5,4.5T541,68l14-24Q543,21 511,5.5T444-10ZM222,51q36,0 65,22.5T332.5,134T349,217v79q-76-29-121-57t-64.5-55.5T144,127q0-34 22-55t56-21ZM92,660q8,51 37.5,82.5T198,774q27,0 52.5-11.5t51.5-23T353,728q19,0 29.5,9.5T400,770h33q-3-33-17.5-60t-36-42.5T333,652q-20,0-40,7.5t-40.5,17t-41,16.5T171,700q-19,0-28.5-8.5T126,660H92Z" />
      <glyph unicode="&#xe4;" glyph-name="gid64" horiz-adv-x="554" d="M444-10q-43,0-65,28T357,97h-5q-27-49-73-77.5T177-9Q136-9 106,6T59.5,47.5T43,110q0,47 35,86.5T205,276l144,63v41q0,63-25.5,92.5T243,502q-32,0-46.5-13T169,437q-11-28-21.5-38T117,389q-24,0-37,13T67,439q0,48 51,74.5T263,540q101,0 142.5-35T447,384V160q0-62 12-88t38-26q10,0 23.5,4.5T541,68l14-24Q543,21 511,5.5T444-10ZM222,51q36,0 65,22.5T332.5,134T349,217v79q-76-29-121-57t-64.5-55.5T144,127q0-34 22-55t56-21ZM122,745q0,25 16.5,41.5T180,803t41.5-16.5T238,745t-16.5-41.5T180,687t-41.5,16.5T122,745Zm167,0q0,25 16.5,41.5T347,803t41.5-16.5T405,745t-16.5-41.5T347,687t-41.5,16.5T289,745Z" />
      <glyph unicode="&#xe5;" glyph-name="gid66" horiz-adv-x="554" d="M444-10q-43,0-65,28T357,97h-5q-27-49-73-77.5T177-9Q136-9 106,6T59.5,47.5T43,110q0,47 35,86.5T205,276l144,63v41q0,63-25.5,92.5T243,502q-32,0-46.5-13T169,437q-11-28-21.5-38T117,389q-24,0-37,13T67,439q0,48 51,74.5T263,540q101,0 142.5-35T447,384V160q0-62 12-88t38-26q10,0 23.5,4.5T541,68l14-24Q543,21 511,5.5T444-10ZM222,51q36,0 65,22.5T332.5,134T349,217v79q-76-29-121-57t-64.5-55.5T144,127q0-34 22-55t56-21ZM177,742q0,38 24.5,63T263,830q38,0 63-25t25-63q0-37-25-61.5T263,656q-37,0-61.5,24.5T177,742Zm39,0q0-20 13.5-33.5T263,695t32.5,13.5T308,742t-12.5,32.5T263,787t-33.5-12.5T216,742Z" />
      <glyph unicode="&#xe6;" glyph-name="gid68" horiz-adv-x="852" d="M771,121l31-28q-44-52-95.5-77.5T594-10q-73,0-128.5,34T380,118q-28-61-79.5-94T182-9Q118-9 80.5,22.5T43,109t40,95.5T205,276l144,53v51q0,63-25.5,92.5T243,502q-32,0-46-13.5T169,437q-10-28-21-38t-30-10q-25,0-38,13T67,439q0,48 51.5,74.5T264,540q68,0 107.5-16.5T430,471q33,33 78,51t98,18q94,0 147-53.5T806,339q0-11-6.5-16.5T775,317H466q-4-12-4-44q0-106 43-168.5T622,42q39,0 75.5,19.5T771,121ZM349,197v89q-108-40-156.5-77.5T144,126q0-33 22.5-54T224,51q34,0 62.5,20T332,124t17,73ZM473,363H637q40,0 50,4.5T697,390q0,46-29.5,74T590,492t-76.5-31.5T473,363Z" />
      <glyph unicode="&#xe7;" glyph-name="gid71" horiz-adv-x="536" d="M476,112l30-29q-36-43-93-68T290-10q-71,0-125.5,34t-85,95T49,261q0,85 35,147.5t97.5,97T327,540q52,0 91.5-11t62-31T503,452q0-19-13-30.5T454,410q-18,0-30,8t-31,33q-13,16-25.5,25T341,489t-34,4q-70,0-107-55T163,276q0-114 41-174T322,42q41,0 79,16.5T476,112ZM323,12L292-72q62,0 93-21t31-65q0-47-34-74.5T290-260q-51,0-83,21t-32,55q0,36 31,36q11,0 17.5-6.5T239-180q9-21 19-29t26-8q22,0 36,14t14,36q0,54-79,54q-7,0-17-0.5T220-115l-3,5L270,12h53Z" />
      <glyph unicode="&#xe8;" glyph-name="gid78" horiz-adv-x="573" d="M491,121l31-28Q437-10 311-10q-78,0-137,34T82,118.5T49,259q0,82 35,145.5T180.5,504T323,540q96,0 149.5-52.5T526,337q0-13-5.5-16.5T495,317H166q-2-8-3-19.5T162,272q0-69 22-121t62-80.5T339,42q41,0 78,19t74,60ZM173,363H357q41,0 50.5,5t9.5,23q0,46-30,73.5T307,492q-53,0-87-32.5T173,363ZM413,651H366L229,716q-24,11-37.5,23.5T178,768q0,17 10.5,26t27.5,9q31,0 67-33L413,651Z" />
      <glyph unicode="&#xe9;" glyph-name="gid75" horiz-adv-x="573" d="M491,121l31-28Q437-10 311-10q-78,0-137,34T82,118.5T49,259q0,82 35,145.5T180.5,504T323,540q96,0 149.5-52.5T526,337q0-13-5.5-16.5T495,317H166q-2-8-3-19.5T162,272q0-69 22-121t62-80.5T339,42q41,0 78,19t74,60ZM173,363H357q41,0 50.5,5t9.5,23q0,46-30,73.5T307,492q-53,0-87-32.5T173,363ZM296,651H249L379,770q36,33 67,33q17,0 27.5-9T484,768q0-16-13.5-28.5T433,716L296,651Z" />
      <glyph unicode="&#xea;" glyph-name="gid76" horiz-adv-x="573" d="M491,121l31-28Q437-10 311-10q-78,0-137,34T82,118.5T49,259q0,82 35,145.5T180.5,504T323,540q96,0 149.5-52.5T526,337q0-13-5.5-16.5T495,317H166q-2-8-3-19.5T162,272q0-69 22-121t62-80.5T339,42q41,0 78,19t74,60ZM173,363H357q41,0 50.5,5t9.5,23q0,46-30,73.5T307,492q-53,0-87-32.5T173,363ZM278,780h90L487,651H442L323,719L204,651H159L278,780Z" />
      <glyph unicode="&#xeb;" glyph-name="gid77" horiz-adv-x="573" d="M491,121l31-28Q437-10 311-10q-78,0-137,34T82,118.5T49,259q0,82 35,145.5T180.5,504T323,540q96,0 149.5-52.5T526,337q0-13-5.5-16.5T495,317H166q-2-8-3-19.5T162,272q0-69 22-121t62-80.5T339,42q41,0 78,19t74,60ZM173,363H357q41,0 50.5,5t9.5,23q0,46-30,73.5T307,492q-53,0-87-32.5T173,363Zm9,382q0,25 16.5,41.5T240,803t41.5-16.5T298,745t-16.5-41.5T240,687t-41.5,16.5T182,745Zm167,0q0,25 16.5,41.5T407,803t41.5-16.5T465,745t-16.5-41.5T407,687t-41.5,16.5T349,745Z" />
      <glyph unicode="&#xec;" glyph-name="gid88" horiz-adv-x="341" d="M228,540V162q0-52 7-78.5T262,48t59-11V0H34V37q41,2 61.5,11.5t27.5,34t7,71.5V278q0,58-1.5,95.5T123,424q-4,24-22.5,32.5T32,465v37l196,38Zm41,111H222L85,716q-24,11-37.5,23.5T34,768q0,17 10.5,26T72,803q31,0 67-33L269,651Z" />
      <glyph unicode="&#xed;" glyph-name="gid84" horiz-adv-x="341" d="M228,540V162q0-52 7-78.5T262,48t59-11V0H34V37q41,2 61.5,11.5t27.5,34t7,71.5V278q0,58-1.5,95.5T123,424q-4,24-22.5,32.5T32,465v37l196,38ZM152,651H105L235,770q36,33 67,33q17,0 27.5-9T340,768q0-16-13.5-28.5T289,716L152,651Z" />
      <glyph unicode="&#xee;" glyph-name="gid85" horiz-adv-x="341" d="M228,540V162q0-52 7-78.5T262,48t59-11V0H34V37q41,2 61.5,11.5t27.5,34t7,71.5V278q0,58-1.5,95.5T123,424q-4,24-22.5,32.5T32,465v37l196,38ZM134,780h90L343,651H298L179,719L60,651H15L134,780Z" />
      <glyph unicode="&#xef;" glyph-name="gid86" horiz-adv-x="341" d="M228,540V162q0-52 7-78.5T262,48t59-11V0H34V37q41,2 61.5,11.5t27.5,34t7,71.5V278q0,58-1.5,95.5T123,424q-4,24-22.5,32.5T32,465v37l196,38ZM38,745q0,25 16.5,41.5T96,803t41.5-16.5T154,745t-16.5-41.5T96,687T54.5,703.5T38,745Zm167,0q0,25 16.5,41.5T263,803t41.5-16.5T321,745t-16.5-41.5T263,687t-41.5,16.5T205,745Z" />
      <glyph unicode="&#xf0;" glyph-name="gid73" horiz-adv-x="640" d="M308-10q-72,0-130.5,33t-93,90.5T50,244q0,71 32.5,128.5T172,464t128,34q53,0 92.5-22T453,412l3,2Q416,570 330,652L200,577l-24,32l121,71q-22,17-54,32.5T160,746l19,34q47-13 92.5-30T352,712l130,75l25-32L390,687q59-41 100-101t63-131t22-147q0-93-34.5-164.5T445.5,31T308-10Zm1,45q64,0 101.5,56T448,244q0,95-37,150T310,449t-99.5-54T175,244q0-99 35.5-154T309,35Z" />
      <glyph unicode="&#xf1;" glyph-name="gid96" horiz-adv-x="689" d="M216,291V157q0-54 4.5-79T243,45t56-11V0H37V34q37,3 55,10.5T115.5,76t5.5,74V283q0,59-1.5,95.5T115,428q-6,27-21,34.5T35,470v32l160,38l12-99h4q38,47 89.5,73T411,540q46,0 84-15t58-41q17-23 24-59.5T584,324V157q0-54 5-79t22.5-33T665,34V0H406V34q38,2 55.5,10T484,76.5t5,73.5V282q0,113-26,158.5T375,486q-44,0-82-23.5T234,398q-7-13-11-25.5t-5.5-31T216,291ZM182,660q8,51 37.5,82.5T288,774q27,0 52.5-11.5t51.5-23T443,728q19,0 29.5,9.5T490,770h33q-3-33-17.5-60t-36-42.5T423,652q-20,0-40,7.5t-40.5,17t-41,16.5T261,700q-19,0-28.5-8.5T216,660H182Z" />
      <glyph unicode="&#xf2;" glyph-name="gid101" horiz-adv-x="654" d="M325,540q57,0 108-20t89.5-56.5t61-86T606,269q0-61-22.5-112t-61-88.5T433,10.5T325-10q-56,0-106,20.5t-88.5,58T70,157T48,269q0,79 38,140t101,96t138,35Zm0-48q-49,0-86-28t-57.5-78.5T161,268q0-103 44.5-165T325,41q77,0 122.5,62T493,268q0,67-21,117t-58.5,78.5T325,492Zm90,159H368L231,716q-24,11-37.5,23.5T180,768q0,17 10.5,26t27.5,9q31,0 67-33L415,651Z" />
      <glyph unicode="&#xf3;" glyph-name="gid98" horiz-adv-x="654" d="M325,540q57,0 108-20t89.5-56.5t61-86T606,269q0-61-22.5-112t-61-88.5T433,10.5T325-10q-56,0-106,20.5t-88.5,58T70,157T48,269q0,79 38,140t101,96t138,35Zm0-48q-49,0-86-28t-57.5-78.5T161,268q0-103 44.5-165T325,41q77,0 122.5,62T493,268q0,67-21,117t-58.5,78.5T325,492ZM298,651H251L381,770q36,33 67,33q17,0 27.5-9T486,768q0-16-13.5-28.5T435,716L298,651Z" />
      <glyph unicode="&#xf4;" glyph-name="gid99" horiz-adv-x="654" d="M325,540q57,0 108-20t89.5-56.5t61-86T606,269q0-61-22.5-112t-61-88.5T433,10.5T325-10q-56,0-106,20.5t-88.5,58T70,157T48,269q0,79 38,140t101,96t138,35Zm0-48q-49,0-86-28t-57.5-78.5T161,268q0-103 44.5-165T325,41q77,0 122.5,62T493,268q0,67-21,117t-58.5,78.5T325,492ZM280,780h90L489,651H444L325,719L206,651H161L280,780Z" />
      <glyph unicode="&#xf5;" glyph-name="gid103" horiz-adv-x="654" d="M325,540q57,0 108-20t89.5-56.5t61-86T606,269q0-61-22.5-112t-61-88.5T433,10.5T325-10q-56,0-106,20.5t-88.5,58T70,157T48,269q0,79 38,140t101,96t138,35Zm0-48q-49,0-86-28t-57.5-78.5T161,268q0-103 44.5-165T325,41q77,0 122.5,62T493,268q0,67-21,117t-58.5,78.5T325,492ZM154,660q8,51 37.5,82.5T260,774q27,0 52.5-11.5t51.5-23T415,728q19,0 29.5,9.5T462,770h33q-3-33-17.5-60t-36-42.5T395,652q-20,0-40,7.5t-40.5,17t-41,16.5T233,700q-19,0-28.5-8.5T188,660H154Z" />
      <glyph unicode="&#xf6;" glyph-name="gid100" horiz-adv-x="654" d="M325,540q57,0 108-20t89.5-56.5t61-86T606,269q0-61-22.5-112t-61-88.5T433,10.5T325-10q-56,0-106,20.5t-88.5,58T70,157T48,269q0,79 38,140t101,96t138,35Zm0-48q-49,0-86-28t-57.5-78.5T161,268q0-103 44.5-165T325,41q77,0 122.5,62T493,268q0,67-21,117t-58.5,78.5T325,492ZM184,745q0,25 16.5,41.5T242,803t41.5-16.5T300,745t-16.5-41.5T242,687t-41.5,16.5T184,745Zm167,0q0,25 16.5,41.5T409,803t41.5-16.5T467,745t-16.5-41.5T409,687t-41.5,16.5T351,745Z" />
      <glyph unicode="&#xf7;" glyph-name="gid215" horiz-adv-x="599" d="M66,313v50H534V313H66ZM302,447q-27,0-46,19t-19,46q0,28 19,47t46,19q28,0 47-19t19-47q0-27-19-46t-47-19Zm0-350q-27,0-46,19t-19,46q0,28 19,47t46,19q28,0 47-19t19-47q0-27-19-46T302,97Z" />
      <glyph unicode="&#xf8;" glyph-name="gid102" horiz-adv-x="654" d="M40-61L556,592h69L108-61H40ZM325,540q57,0 108-20t89.5-56.5t61-86T606,269q0-61-22.5-112t-61-88.5T433,10.5T325-10q-56,0-106,20.5t-88.5,58T70,157T48,269q0,79 38,140t101,96t138,35Zm0-48q-49,0-86-28t-57.5-78.5T161,268q0-103 44.5-165T325,41q77,0 122.5,62T493,268q0,67-21,117t-58.5,78.5T325,492Z" />
      <glyph unicode="&#xf9;" glyph-name="gid116" horiz-adv-x="670" d="M463,272v98q0,55-4.5,80t-22,33T380,495v35H561V223q0-57 1.5-93T567,76q5-25 20-32.5T648,36V1L483-11L472,109h-4q-38-61-87.5-90T277-10q-42,0-81.5,16T136,49q-32,42-32,162V370q0,41-2.5,65T91,471T66.5,487.5T21,495v35H202V257q0-108 26-157.5T309,50q88,0 137,115q10,23 13.5,43.5T463,272ZM403,651H356L219,716q-24,11-37.5,23.5T168,768q0,17 10.5,26t27.5,9q31,0 67-33L403,651Z" />
      <glyph unicode="&#xfa;" glyph-name="gid113" horiz-adv-x="670" d="M463,272v98q0,55-4.5,80t-22,33T380,495v35H561V223q0-57 1.5-93T567,76q5-25 20-32.5T648,36V1L483-11L472,109h-4q-38-61-87.5-90T277-10q-42,0-81.5,16T136,49q-32,42-32,162V370q0,41-2.5,65T91,471T66.5,487.5T21,495v35H202V257q0-108 26-157.5T309,50q88,0 137,115q10,23 13.5,43.5T463,272ZM286,651H239L369,770q36,33 67,33q17,0 27.5-9T474,768q0-16-13.5-28.5T423,716L286,651Z" />
      <glyph unicode="&#xfb;" glyph-name="gid114" horiz-adv-x="670" d="M463,272v98q0,55-4.5,80t-22,33T380,495v35H561V223q0-57 1.5-93T567,76q5-25 20-32.5T648,36V1L483-11L472,109h-4q-38-61-87.5-90T277-10q-42,0-81.5,16T136,49q-32,42-32,162V370q0,41-2.5,65T91,471T66.5,487.5T21,495v35H202V257q0-108 26-157.5T309,50q88,0 137,115q10,23 13.5,43.5T463,272ZM268,780h90L477,651H432L313,719L194,651H149L268,780Z" />
      <glyph unicode="&#xfc;" glyph-name="gid115" horiz-adv-x="670" d="M463,272v98q0,55-4.5,80t-22,33T380,495v35H561V223q0-57 1.5-93T567,76q5-25 20-32.5T648,36V1L483-11L472,109h-4q-38-61-87.5-90T277-10q-42,0-81.5,16T136,49q-32,42-32,162V370q0,41-2.5,65T91,471T66.5,487.5T21,495v35H202V257q0-108 26-157.5T309,50q88,0 137,115q10,23 13.5,43.5T463,272ZM172,745q0,25 16.5,41.5T230,803t41.5-16.5T288,745t-16.5-41.5T230,687t-41.5,16.5T172,745Zm167,0q0,25 16.5,41.5T397,803t41.5-16.5T455,745t-16.5-41.5T397,687t-41.5,16.5T339,745Z" />
      <glyph unicode="&#xfd;" glyph-name="gid121" horiz-adv-x="639" d="M499,328L281-157q-22-50-59-76.5T138-260q-31,0-47,11.5T75-213q0,25 17.5,37T157-157q41,7 62.5,23T260-81l35,70L103,406q-17,37-29.5,55.5T46,486.5T4,495v35H269V495q-34,0-50.5-8T202,462q0-13 8-41t20-57L340,98h5l91,225q18,44 27,67.5T475,427t3,24q0,26-14.5,35T408,495v35H628V495q-19,0-32.5-5.5t-26.5-22t-29.5-50T499,328ZM322,651H275L405,770q36,33 67,33q17,0 27.5-9T510,768q0-16-13.5-28.5T459,716L322,651Z" />
      <glyph unicode="&#xfe;" glyph-name="gid106" horiz-adv-x="654" d="M91-97V604q0,50-3.5,83T78,733q-4,10-10.5,15T46,757t-47,8v25l188,40V459h4q62,81 160,81q72,0 130-36.5T572.5,405T606,265T572,124.5t-92.5-99T348-11q-98,0-157,67V-90q0-53 8-79t32.5-35T305-215v-35H-3v35q40,2 60,11t27,34t7,73Zm98,395V209q0-50 19-89t52.5-61T337,37q47,0 82,28t54.5,79T493,262q0,68-20.5,120T416,463.5T333,493q-40,0-72.5-19.5T211,419q-22-44-22-121Z" />
      <glyph unicode="&#xff;" glyph-name="gid122" horiz-adv-x="639" d="M499,328L281-157q-22-50-59-76.5T138-260q-31,0-47,11.5T75-213q0,25 17.5,37T157-157q41,7 62.5,23T260-81l35,70L103,406q-17,37-29.5,55.5T46,486.5T4,495v35H269V495q-34,0-50.5-8T202,462q0-13 8-41t20-57L340,98h5l91,225q18,44 27,67.5T475,427t3,24q0,26-14.5,35T408,495v35H628V495q-19,0-32.5-5.5t-26.5-22t-29.5-50T499,328ZM208,745q0,25 16.5,41.5T266,803t41.5-16.5T324,745t-16.5-41.5T266,687t-41.5,16.5T208,745Zm167,0q0,25 16.5,41.5T433,803t41.5-16.5T491,745t-16.5-41.5T433,687t-41.5,16.5T375,745Z" />
      <glyph unicode="&#x2013;" glyph-name="gid174" horiz-adv-x="724" d="M647,248H77v83H647V248Z" />
      <glyph unicode="&#x2014;" glyph-name="gid175" horiz-adv-x="1112" d="M1035,248H77v83h958V248Z" />
      <glyph unicode="&#x2018;" glyph-name="gid187" horiz-adv-x="257" d="M175,830l23-27q-46-34-65.5-66T113,667q6,4 14,6t16,2q23,0 37.5-15.5T195,620q0-27-18.5-44T127,559q-34,0-52.5,24T56,653q0,34 11,61.5t37,55T175,830Z" />
      <glyph unicode="&#x2019;" glyph-name="gid188" horiz-adv-x="254" d="M87,559L64,586q46,35 65.5,66.5T149,722q-6-4-14-6t-16-2q-23,0-37.5,15.5T67,769q0,27 18.5,44T135,830q35,0 53-24t18-70q0-34-11-61.5T158.5,620T87,559Z" />
      <glyph unicode="&#x201a;" glyph-name="gid183" horiz-adv-x="275" d="M89-165L66-138q46,35 65.5,66.5T151-2q-6-4-14-6t-16-2Q98-10 83.5,5.5T69,45q0,27 18.5,44T137,106q35,0 53-24t18-70q0-34-11-61.5T160.5-104T89-165Z" />
      <glyph unicode="&#x201c;" glyph-name="gid185" horiz-adv-x="449" d="M367,830l23-27q-46-34-65.5-66T305,667q6,4 14,6t16,2q23,0 37.5-15.5T387,620q0-27-18.5-44T319,559q-34,0-52.5,24T248,653q0,34 11,61.5t37,55T367,830Zm-192,0l23-27q-46-34-65.5-66T113,667q6,4 14,6t16,2q23,0 37.5-15.5T195,620q0-27-18.5-44T127,559q-34,0-52.5,24T56,653q0,34 11,61.5t37,55T175,830Z" />
      <glyph unicode="&#x201d;" glyph-name="gid186" horiz-adv-x="446" d="M87,559L64,586q46,35 65.5,66.5T149,722q-6-4-14-6t-16-2q-23,0-37.5,15.5T67,769q0,27 18.5,44T135,830q35,0 53-24t18-70q0-34-11-61.5T158.5,620T87,559Zm192,0l-23,27q46,35 65.5,66.5T341,722q-6-4-14-6t-16-2q-23,0-37.5,15.5T259,769q0,27 18.5,44T327,830q35,0 53-24t18-70q0-34-11-61.5T350.5,620T279,559Z" />
      <glyph unicode="&#x201e;" glyph-name="gid184" horiz-adv-x="467" d="M89-165L66-138q46,35 65.5,66.5T151-2q-6-4-14-6t-16-2Q98-10 83.5,5.5T69,45q0,27 18.5,44T137,106q35,0 53-24t18-70q0-34-11-61.5T160.5-104T89-165Zm192,0l-23,27q46,35 65.5,66.5T343-2q-6-4-14-6t-16-2q-23,0-37.5,15.5T261,45q0,27 18.5,44T329,106q35,0 53-24t18-70q0-34-11-61.5T352.5-104T281-165Z" />
      <glyph unicode="&#x2022;" glyph-name="gid166" horiz-adv-x="476" d="M235,216q-40,0-74.5,20.5T105,292T84,369q0,43 21.5,77t57,54.5T240,521q41,0 75.5-20.5T371,446t21-77q0-42-21-77t-56.5-55.5T235,216Z" />
      <glyph unicode="&#x2039;" glyph-name="gid191" horiz-adv-x="318" d="M219,104L49,262L219,421l20-21L140,262l98-138l-19-20Z" />
      <glyph unicode="&#x203a;" glyph-name="gid192" horiz-adv-x="318" d="M269,262L99,104L80,124l98,138L79,400l20,21L269,262Z" />
    </font>
</defs>
</svg>
